<?xml version="1.0" encoding="UTF-8"?>
<svg version="1.1" viewBox="0 0 1600 1464" width="1280" height="1280" xmlns="http://www.w3.org/2000/svg">
<path transform="translate(855 115)" d="m0 0c0.755 0.0435 1.51 0.087 2.29 0.132 2.12 0.125 4.24 0.258 6.36 0.396 1.82 0.118 1.82 0.118 3.68 0.238 2.73 0.297 2.73 0.297 3.73 1.3 2.2 0.337 4.4 0.614 6.61 0.867 0.678 0.0793 1.36 0.159 2.05 0.24 1.46 0.17 2.92 0.339 4.37 0.506 3.78 0.435 7.56 0.887 11.3 1.34 0.746 0.0893 1.49 0.179 2.26 0.271 6.03 0.726 12 1.51 18 2.4 0.774 0.111 1.55 0.221 2.35 0.335 4.18 0.634 7.98 1.67 12 3.04 1.74 0.309 3.49 0.579 5.25 0.812 6 0.945 11.7 2.48 17.5 4.16 6.73 1.93 13.5 3.63 20.3 5.24 5.15 1.25 9.97 2.85 14.9 4.79 1.35 0.47 2.7 0.931 4.06 1.38 1.13 0.371 1.13 0.371 2.27 0.75 1.32 0.433 1.32 0.433 2.66 0.875 34.9 11.5 34.9 11.5 41.5 15.5 2.51 1.48 4.84 2.4 7.6 3.31 5.23 1.84 10.1 4.16 15 6.69 2.73 1.38 5.47 2.64 8.27 3.87 5.15 2.31 10.1 4.92 15.1 7.61 3.96 2.14 7.95 4.18 12 6.14 4.41 2.18 8.43 4.63 12.5 7.43 2.91 1.95 5.94 3.61 9.02 5.27 5.21 2.86 10.2 6.1 15.2 9.3 1.87 1.19 3.74 2.37 5.62 3.54 12.2 7.6 23.6 16.1 34.8 25.1 1.4 1.12 2.8 2.23 4.21 3.33 6.34 5.02 12.5 10.2 18.7 15.5 1.68 1.43 3.36 2.84 5.05 4.26 13 11 25.2 22.7 37.3 34.7 0.734 0.729 1.47 1.46 2.22 2.21 4.59 4.6 8.91 9.37 13.2 14.3 1.41 1.57 2.83 3.13 4.25 4.69 5.88 6.51 11.5 13.2 17.1 20 1.82 2.19 3.62 4.33 5.63 6.35 2.08 2.61 4.03 5.31 6 8 0.404 0.549 0.808 1.1 1.22 1.66 1.35 1.84 2.69 3.68 4.03 5.52 0.436 0.594 0.873 1.19 1.32 1.8 2.32 3.22 4.15 6.25 5.43 10h2c1.52 2.09 1.52 2.09 3.25 4.94 0.62 1 1.24 2 1.88 3.04 0.617 0.999 1.23 2 1.87 3.03 3.81 5.91 3.81 5.91 8.06 11.5 2.15 2.78 3.73 5.64 5.39 8.72 1.9 3.41 3.9 6.75 5.92 10.1 0.787 1.31 1.57 2.61 2.36 3.92 1.39 2.3 2.77 4.6 4.16 6.91 3.77 6.35 7.16 12.8 10.4 19.5 2.03 4.06 4.25 7.99 6.54 11.9 1.32 2.83 1.78 5.41 2.16 8.5h2c0.371 1.22 0.743 2.43 1.12 3.69 1.74 5.23 4.05 10.1 6.39 15.1 3.3 7.13 5.92 14.4 8.35 21.9 1.04 3.04 2.18 6.01 3.35 9 2.74 7 4.85 13.9 6.4 21.3 0.747 3.5 1.63 6.86 2.81 10.2 1.95 5.68 3.25 11.5 4.57 17.3 0.261 1.14 0.523 2.28 0.792 3.45 1.75 7.74 3.32 15.5 4.67 23.3 0.267 2.59 0.267 2.59 1.54 3.68 0.358 2.13 0.66 4.27 0.938 6.41 0.173 1.3 0.345 2.6 0.523 3.94 0.271 2.08 0.54 4.16 0.81 6.24 0.261 2 0.526 4 0.792 6 0.234 1.81 0.234 1.81 0.473 3.65 0.174 2.66 0.174 2.66 1.46 3.76 0.239 1.5 0.419 3.01 0.573 4.52 0.1 0.961 0.2 1.92 0.303 2.91 0.104 1.04 0.208 2.09 0.316 3.17 0.11 1.06 0.219 2.13 0.332 3.22 0.351 3.41 0.695 6.83 1.04 10.2 0.236 2.31 0.472 4.62 0.709 6.92 0.581 5.67 1.16 11.3 1.73 17h1c0.0231 12.6 0.0409 25.3 0.0518 37.9 0.00523 5.86 0.0123 11.7 0.0236 17.6 0.0108 5.65 0.0168 11.3 0.0194 17 0.00185 2.16 0.00548 4.32 0.0109 6.49 0.00721 3.02 0.00826 6.03 0.0078 9.05 0.0036 0.903 0.00719 1.81 0.0109 2.74-0.0104 6.17-0.0104 6.17-1.12 7.28-0.252 1.95-0.445 3.92-0.613 5.88-0.112 1.22-0.223 2.45-0.338 3.71-0.119 1.31-0.238 2.62-0.361 3.97-2.37 24.9-2.37 24.9-6.77 33.6-1.03 2.09-1.31 3.8-1.54 6.11-0.186 1.86-0.186 1.86-0.375 3.75h-2c-0.049 0.834-0.098 1.67-0.148 2.53-0.445 6.69-1.2 13-2.85 19.5h-2c-0.00258 0.695-0.00516 1.39-0.00781 2.11-0.324 8.53-2.24 16.1-4.73 24.2-1.77 5.8-3.53 11.7-4.26 17.7 0.33 0.33 0.66 0.66 1 1 0.121-0.713 0.242-1.43 0.367-2.16 0.943-5.39 2.01-10.6 3.63-15.8 0.99 0.33 1.98 0.66 3 1-1.05 9.02-3.13 17.9-6.14 26.5-1.08 3.15-2.02 6.33-2.98 9.51-2.26 7.32-4.79 14.5-7.38 21.8l-1.11 3.12c-2.24 6.2-4.65 12.3-7.22 18.4-1.21 2.87-2.38 5.75-3.54 8.64-2.33 5.58-4.99 11-7.73 16.3-2.08 4.11-4.01 8.29-5.95 12.5-2.59 5.55-5.29 11-8.29 16.3-2.23 4.03-4.38 8.1-6.53 12.2-0.609 1.15-0.609 1.15-1.23 2.33-0.966 1.83-1.93 3.66-2.89 5.48h-2c-0.289 0.908-0.578 1.82-0.875 2.75-0.89 2.57-1.84 4.86-3.12 7.25h-2c-0.233 0.84-0.467 1.68-0.707 2.55-1.51 4.02-3.55 7.19-5.98 10.7-0.45 0.662-0.9 1.32-1.36 2.01-1.31 1.92-2.63 3.83-3.95 5.74-0.615 0.893-1.23 1.79-1.86 2.71-1.7 2.44-3.42 4.87-5.14 7.29-0.724 1.04-1.45 2.09-2.2 3.16-5.17 7.4-10.6 14.5-16.4 21.4-2.18 2.63-4.2 5.12-5.94 8.07-1.78 2.91-3.99 4.97-6.43 7.35-1.88 2.11-3.69 4.27-5.5 6.44-0.46 0.547-0.92 1.09-1.39 1.66-2.73 3.25-2.73 3.25-5.43 6.54-2.29 2.8-4.57 5.32-7.36 7.62-5.05 4.3-9.66 9.03-14.3 13.8-1.67 1.67-3.33 3.33-5 5-1.54 1.55-3.08 3.1-4.62 4.65-1.75 1.76-3.51 3.52-5.26 5.29-1.31 1.32-1.31 1.32-2.64 2.67-4.66 4.68-9.3 9.29-14.5 13.4h-2v2c-1.66 1.52-1.66 1.52-4.06 3.38-4.66 3.63-4.66 3.63-9.27 7.33-13.7 11.1-27.8 21.8-42.7 31.3-0.782 0.505-1.56 1.01-2.37 1.53-17.6 11.4-35.4 22-54.1 31.6-3.28 1.69-6.54 3.41-9.77 5.21-13.4 7.45-27.6 13-41.8 18.7-1.14 0.456-2.29 0.912-3.46 1.38-36.4 14.5-73.9 25.7-113 32.6-0.697 0.127-1.39 0.253-2.11 0.383-32.2 5.81-65.2 10.5-97.9 7.62 0.33-0.99 0.66-1.98 1-3 1 0.0181 2.01 0.0363 3.04 0.0549 3.86-0.0535 7.5-0.419 11.3-0.934 1.42-0.186 2.83-0.371 4.25-0.555 0.725-0.0947 1.45-0.189 2.2-0.287 3.57-0.453 7.14-0.849 10.7-1.24 1.44-0.16 2.88-0.321 4.32-0.481 1.08-0.12 1.08-0.12 2.19-0.243 10.7-1.19 21.4-2.4 32-4 0.801-0.119 1.6-0.238 2.43-0.361 3.87-0.574 3.87-0.574 7.51-1.95 1.92-0.277 3.84-0.55 5.77-0.799 10.2-1.34 20.3-3.43 30.3-5.76 0.669-0.154 1.34-0.307 2.03-0.466 1.92-0.443 3.84-0.897 5.76-1.35 1.67-0.396 1.67-0.396 3.38-0.799 2.95-0.725 2.95-0.725 5.78-2.82-5.35 0.847-10.7 1.71-16 2.84-0.999 0.211-0.999 0.211-2.02 0.427-1.91 0.409-3.83 0.829-5.74 1.25-2.93 0.44-4.52 0.504-7.25-0.512 2.17-2.46 3.75-3.47 6.92-4.24 0.787-0.198 1.57-0.395 2.39-0.599 0.852-0.203 1.7-0.406 2.58-0.615 0.888-0.221 1.78-0.442 2.69-0.669 1.9-0.472 3.8-0.94 5.71-1.4 4.94-1.21 9.88-2.45 14.8-3.7 0.964-0.243 1.93-0.485 2.92-0.735 65.1-16.5 129-46 183-85.8 1.74-1.27 3.49-2.51 5.25-3.75 6.99-4.93 13.8-10 20.4-15.4 1.58-1.25 3.17-2.5 4.75-3.75 9.77-7.82 19.2-16.1 28.3-24.6 2.14-1.96 4.31-3.86 6.51-5.75 5.17-4.51 10-9.35 14.9-14.2 1.59-1.58 3.18-3.16 4.77-4.73 5.23-5.2 10.1-10.4 14.4-16.4 0.431-0.509 0.863-1.02 1.31-1.54h2c0.218-0.529 0.436-1.06 0.66-1.6 1.84-3.29 4.29-5.96 6.78-8.77 9.39-10.8 18.1-22.1 26.6-33.6 0.39-0.525 0.78-1.05 1.18-1.59 6.76-9.12 12.7-18.6 18.6-28.3 1.7-2.81 3.44-5.59 5.18-8.38 8.35-13.6 16.2-27.4 23.1-41.8 0.942-1.92 1.91-3.83 2.88-5.74 6.97-13.7 13.6-27.6 18.9-42 0.969-2.59 1.99-5.14 3.03-7.7 8.35-20.8 15-42.7 18.6-64.9 0.576-2.66 1.52-4.99 2.54-7.51 0.477-2.01 0.477-2.01 0.746-4 0.114-0.734 0.227-1.47 0.344-2.23 0.115-0.77 0.229-1.54 0.347-2.33 0.83-5.3 1.74-10.5 3.12-15.7 1.44-5.4 2.23-10.8 2.91-16.3 0.527-3.42 0.527-3.42 1.49-7.11 1.37-5.26 1.91-10.6 2.54-16 0.89-7.44 1.81-14.8 3.07-22.2 1.21-8.66 1.64-17.4 1.96-26.1 0.043-1.09 0.086-2.19 0.13-3.32 0.135-3.45 0.266-6.91 0.397-10.4 0.0915-2.36 0.183-4.72 0.275-7.08 0.224-5.75 0.444-11.5 0.662-17.2h1v-30h-1c-1.33-17.3-2.67-34.7-4-52h-1v-7h-1c-0.0856-0.645-0.171-1.29-0.26-1.96-0.39-2.93-0.784-5.86-1.18-8.79-0.202-1.52-0.202-1.52-0.408-3.08-0.132-0.98-0.264-1.96-0.4-2.97-0.12-0.901-0.241-1.8-0.365-2.73-0.448-2.85-1.13-5.56-1.92-8.33-0.616-2.79-0.819-5.54-1.04-8.39-0.126-1.62-0.126-1.62-0.254-3.27l-0.184-2.48h-2c0.121 0.623 0.242 1.25 0.367 1.89 2.82 15.6 4.04 31.3 3.63 47.1h2c0.755 8.36 1.14 16.6 1 25h-1c-1.39-5.49-2-10.3-2-16-0.33-0.825-0.66-1.65-1-2.5-1.3-3.24-1.14-6.04-1-9.5h-2c-0.144-1.07-0.289-2.14-0.438-3.25-0.445-3.52-0.445-3.52-1.19-5.94-0.457-2.21-0.0585-3.69 0.625-5.81h-2l0.402 2.41c0.533 3.2 1.07 6.39 1.6 9.59 0.196 1.05 0.392 2.1 0.594 3.19 0.458 3.17 0.0743 5.69-0.594 8.81h2c2.11 10.2 3.38 20.2 3.71 30.7-0.271 3.99-0.271 3.99 1.29 7.34 1.16 7.71 1.15 15.4 1.13 23.1 6.76e-4 1.36 0.00165 2.73 0.0029 4.09 0.00147 2.85-6.43e-4 5.7-0.00534 8.55-0.00566 3.61-0.00243 7.21 0.00357 10.8 0.00366 2.82 0.00244 5.63-1.28e-4 8.45-9.69e-4 1.96 0.00201 3.92 0.00513 5.89-0.064 25-0.064 25-2.14 27.1-0.229 1.73-0.398 3.47-0.543 5.21-1.28 14.2-3.02 28.2-5.46 42.3-0.125 0.73-0.251 1.46-0.38 2.21-1.42 8.21-3.01 16.3-4.97 24.4-0.862 3.75-1.51 7.51-2.13 11.3-0.612 2.94-1.57 5.69-2.53 8.54-0.503 2.1-0.982 4.2-1.44 6.31-1.04 4.61-2.26 9.02-3.82 13.5-0.796 2.38-1.43 4.78-2.05 7.21-1.71 6.41-3.96 12.6-6.2 18.8-1.59 4.43-3.07 8.88-4.53 13.4-1 2.94-2.08 5.85-3.18 8.75-0.723 1.92-1.43 3.85-2.13 5.77-5.36 14.6-11.8 28.7-18.5 42.8-5.34 11.1-5.34 11.1-10.1 22.5-0.807 2-1.62 4-2.44 6-0.411 1.01-0.822 2.02-1.25 3.06-1.26 2.81-2.68 5.33-4.32 7.94-3.11 5.11-6.14 10.2-8.94 15.5-2.43 4.49-5.14 8.61-8.13 12.7-2.75 3.92-5.29 7.96-7.83 12-2.79 4.42-2.79 4.42-4.57 6.19-1.61 1.62-2.82 3.27-4.09 5.16-0.469 0.69-0.937 1.38-1.42 2.09-0.722 1.07-0.722 1.07-1.46 2.17-3.05 4.51-6.12 8.9-9.56 13.1-0.66 0.99-1.32 1.98-2 3h-2c-0.0619 0.557-0.124 1.11-0.188 1.69-1.15 3.27-3.35 4.89-5.81 7.31-1.77 2.03-3.52 4.06-5.25 6.12-0.475 0.563-0.949 1.13-1.44 1.71-3.81 4.53-7.54 9.11-11.2 13.7-2.23 2.62-4.63 5.01-7.07 7.44-0.784 0.969-1.57 1.94-2.38 2.94-1.83 2.25-3.76 4.09-6 5.94-2.59 2.14-4.77 4.37-6.94 6.94-4.16 4.87-8.86 9-13.7 13.2-0.552 0.48-1.1 0.961-1.67 1.46-6.32 5.5-12.6 11-19.4 15.9-2.11 1.66-2.11 1.66-4.39 4.04-3.89 3.86-8.28 6.96-12.7 10.2-1.31 0.955-2.61 1.91-3.91 2.87-10 7.38-20.2 14.4-30.7 21.1-1.56 0.982-3.11 1.97-4.67 2.96-13 8.26-26.2 15.8-39.8 23-3.9 2.09-7.75 4.24-11.6 6.41-2.2 1.1-2.2 1.1-4.2 1.1 1.5-3.83 3.63-5.7 7-8 5.31-2.23 5.31-2.23 9-1-0.33-1.32-0.66-2.64-1-4 0.949-0.412 1.9-0.825 2.88-1.25 3.13-1.75 3.99-2.46 5.12-5.75-0.66-0.33-1.32-0.66-2-1 1.01-0.597 2.02-1.19 3.06-1.81 19.4-11.6 38.1-24.3 55.9-38.2 1.18-0.908 2.37-1.82 3.55-2.72 11.5-8.83 22.3-18.4 33-28.1 1.37-1.23 2.74-2.45 4.13-3.64 5.88-5.05 11.4-10.4 16.9-15.9 0.907-0.895 1.81-1.79 2.75-2.71 4.75-4.74 9.16-9.51 13.1-14.9 1.7-2.18 3.59-4.05 5.55-5.99 1.34-1.66 2.68-3.33 4-5 1.02-1.17 2.04-2.34 3.06-3.5 1.84-2.12 3.24-4.01 4.69-6.44 0.412-0.681 0.825-1.36 1.25-2.06h2c0.258-0.721 0.516-1.44 0.781-2.18 1.28-2.96 2.82-5.28 4.72-7.88 2.11-2.9 3.99-5.68 5.5-8.94h2v-4h2v-2c-0.619 0.681-0.619 0.681-1.25 1.38-1.75 1.62-1.75 1.62-3.81 2.56-2.46 1.35-2.72 2.57-3.94 5.06-1.62 1.71-3.29 3.37-5 5-0.763 0.784-1.53 1.57-2.31 2.38-9.85 9.62-9.85 9.62-12.7 9.62-0.254 0.593-0.508 1.19-0.77 1.8-1.37 2.45-2.75 3.7-4.92 5.45-2.89 2.44-5.39 4.91-7.81 7.81-3.38 4-7.19 6.99-11.5 9.94 1.3-2.73 2.73-5.18 4.5-7.62 0.423-0.59 0.846-1.18 1.28-1.79 1.56-2.03 3.35-3.71 5.22-5.46 2.02-1.94 2.02-1.94 2.94-4 2.23-4.46 6.03-8.09 9.31-11.8 6-6.83 11.7-13.7 16.8-21.3 2.08-2.78 4.23-5.5 6.38-8.23 1.94-2.49 3.72-4.94 5.31-7.67 0.434-0.692 0.869-1.38 1.32-2.1h2c0.268-0.715 0.536-1.43 0.812-2.17 1.2-2.87 2.6-5.47 4.19-8.14 0.516-0.883 1.03-1.77 1.56-2.68 0.474-0.664 0.949-1.33 1.44-2.01h2c0.257-0.705 0.513-1.41 0.777-2.14 1.33-3.12 2.96-5.81 4.79-8.68 4.75-7.58 9.1-15.4 13.4-23.2 0.485-0.868 0.969-1.74 1.47-2.63 1.18-2.12 2.36-4.25 3.53-6.37 0.446-0.799 0.892-1.6 1.35-2.42 6.3-11.4 12.1-23 17.1-35 0.857-2.02 1.73-4.03 2.66-6.01 3.18-6.78 5.7-13.6 7.98-20.8 2.16-6.66 4.38-13.3 6.88-19.8 2.84-8.06 5.35-16 7.32-24.4 0.606-2.33 1.34-4.47 2.25-6.7 1.61-4.01 2.26-8.07 2.91-12.3 0.527-2.61 0.527-2.61 1.49-4.95 1.34-3.43 1.92-6.92 2.54-10.5 0.683-3.97 1.41-7.82 2.53-11.7 2.8-9.86 3.21-20.4 3.73-30.6 0.246-2.85 0.246-2.85 1.25-3.85 0.291-3 0.524-5.99 0.719-9 0.0628-0.904 0.126-1.81 0.19-2.74 0.201-2.9 0.397-5.8 0.591-8.7 0.256-3.81 0.517-7.62 0.781-11.4 0.086-1.33 0.086-1.33 0.174-2.68 0.432-6.23 0.432-6.23 1.55-8.45 0.111-2.2 0.157-4.4 0.174-6.61 0.00669-0.678 0.0134-1.36 0.0203-2.06 0.0141-1.47 0.026-2.95 0.0359-4.42 0.0164-2.33 0.0396-4.66 0.0649-7 0.0708-6.63 0.131-13.3 0.182-19.9 0.0318-4.05 0.073-8.11 0.12-12.2 0.016-1.55 0.0283-3.09 0.0369-4.64 0.0121-2.16 0.0363-4.32 0.0631-6.49 0.0103-1.23 0.0206-2.46 0.0312-3.73 0.272-3 0.272-3 2.27-6 0.216-2.21 0.216-2.21 0.0469-4.64-0.0425-0.906-0.0851-1.81-0.129-2.75-0.0831-1.42-0.0831-1.42-0.168-2.86-0.04-0.929-0.0799-1.86-0.121-2.82-0.277-5.3-1.13-9.83-2.63-14.9-0.503-3.47-0.818-6.95-1.12-10.4-0.13-1.38-0.13-1.38-0.262-2.79-0.21-2.26-0.415-4.51-0.613-6.77h-1c0.0206-1.13 0.0412-2.27 0.0625-3.44 0.353-3.38 0.353-3.38-1.06-4.56-0.0318-2.49 0.0682-4.97 0.16-7.46 0.0117-2.52 0.0117-2.52-1.13-4.43-1.1-2.25-1.41-3.96-1.66-6.44-0.126-1.2-0.126-1.2-0.254-2.42-0.0786-0.825-0.157-1.65-0.238-2.5-0.13-1.26-0.13-1.26-0.262-2.55-0.211-2.07-0.413-4.13-0.613-6.2h-1l-3-17h-1c-0.193-1.04-0.387-2.07-0.586-3.14-0.263-1.37-0.526-2.74-0.789-4.11-0.126-0.682-0.253-1.36-0.383-2.07-0.692-3.56-1.61-6.47-3.24-9.68-0.837-3.55-1.52-7.11-2.22-10.7-0.665-2.82-1.45-4.79-2.78-7.31-0.538-2.12-0.936-4.24-1.34-6.39-0.728-2.88-1.76-5.59-2.82-8.35-1.21-3.26-2.27-6.56-3.34-9.87-2.72-8.39-5.61-16.5-9.5-24.4-0.593-1.28-1.18-2.56-1.77-3.84-3.72-8.09-7.66-16-11.9-23.9-2.52-4.7-4.94-9.45-7.29-14.2-7.38-14.9-15.8-29.1-24.8-43-1.62-2.53-3.21-5.09-4.8-7.65-6.38-10-13.3-19.7-20.7-29-2.45-3.15-4.79-6.38-7.14-9.6-13.3-19.4-13.3-19.4-29.7-35.8-5.67-4.34-10.7-8.59-15.3-14.1-2.31-2.62-4.87-4.83-7.53-7.08-2.43-2.07-4.8-4.2-7.17-6.35-7.82-7.11-7.82-7.11-16-13.8-0.66-0.557-1.32-1.11-2-1.69v-2c-0.804-0.268-1.61-0.536-2.44-0.812-0.846-0.392-1.69-0.784-2.56-1.19-0.33-0.99-0.66-1.98-1-3-0.687-0.275-1.37-0.549-2.08-0.832-4.06-1.63-7.16-4.19-10.6-6.86-1.43-1.09-2.86-2.18-4.29-3.27-0.69-0.525-1.38-1.05-2.09-1.59-5.96-4.5-12.1-8.67-18.5-12.4-0.461-0.344-0.923-0.688-1.4-1.04v-2c-0.969-0.268-1.94-0.536-2.94-0.812-1.01-0.392-2.02-0.784-3.06-1.19-0.33-0.99-0.66-1.98-1-3-0.825-0.268-1.65-0.536-2.5-0.812-3.85-1.31-6.56-3.12-9.88-5.41-4.1-2.77-8.33-5.32-12.6-7.89-2.44-1.5-4.85-3.02-7.26-4.57-4.43-2.78-9.11-5.02-13.8-7.31-1.52-0.77-3.04-1.54-4.56-2.31-5.35-2.68-10.8-5.22-16.2-7.75-3.44-1.61-6.85-3.25-10.2-5-4.05-2.04-8.21-3.56-12.5-5.01-1.43-0.49-2.85-0.981-4.28-1.47-0.701-0.241-1.4-0.482-2.12-0.73-3.39-1.19-6.74-2.46-10.1-3.73-17.3-6.6-34.8-12.9-52.9-17.2-3.29-0.817-6.54-1.73-9.8-2.65-15.1-4.05-30.6-6.85-46.1-9.22-5.12-0.799-5.12-0.799-6.22-1.9-10.7-1.92-21.5-2.51-32.3-3.06-2.23-0.116-4.47-0.234-6.7-0.357-1.99-0.11-3.98-0.213-5.97-0.315-3.02-0.265-3.02-0.265-5.02-1.27-1.82-0.155-3.65-0.25-5.48-0.316-1.15-0.0421-2.3-0.0843-3.48-0.128-1.87-0.0586-1.87-0.0586-3.79-0.118-1.94-0.0615-1.94-0.0615-3.91-0.124-25.3-0.759-50-0.97-74.9 4.03-3.45 0.661-6.85 1.08-10.4 1.39-2.34 0.25-2.34 0.25-5.57 1.17-5.45 1.4-11 2.14-16.6 2.96-8.3 1.28-16.3 2.79-24.4 5.12-4.12 1.16-8.26 2.12-12.4 3.07-4.96 1.14-9.82 2.37-14.6 4.09-4.36 1.47-8.79 2.7-13.2 3.96-4.14 1.19-8.16 2.55-12.2 4.09-4.86 1.84-9.78 3.49-14.7 5.19-7.87 2.74-15.6 5.61-23.2 8.98-0.698 0.307-1.4 0.615-2.11 0.932-7.01 3.09-14 6.22-20.9 9.52-0.669 0.318-1.34 0.636-2.03 0.963-1.31 0.624-2.62 1.25-3.93 1.89-3.38 1.61-6.5 2.79-10.2 3.32v2c-0.617 0.303-1.23 0.606-1.87 0.918-5.81 2.87-11.5 5.88-17.1 9.08-1.14 0.645-2.29 1.29-3.46 1.95-1.24 0.703-2.48 1.41-3.72 2.11-0.582 0.328-1.16 0.657-1.76 0.995-2.87 1.63-5.62 3.33-8.35 5.19-2.7 1.75-2.7 1.75-4.7 1.75v2c-1.57 1.18-1.57 1.18-3.69 2.44l-2.21 1.32c-0.695 0.41-1.39 0.82-2.11 1.24-0.949 0.598-1.9 1.2-2.88 1.81-2.12 1.19-2.12 1.19-4.12 1.19-0.33 0.99-0.66 1.98-1 3-2.08 1.44-4.13 2.74-6.31 4-4.61 2.7-4.61 2.7-8.98 5.75-1.71 1.25-1.71 1.25-3.71 1.25-0.33 0.99-0.66 1.98-1 3-1.96 1.39-3.97 2.71-6 4-2.1 1.57-4.18 3.14-6.25 4.75-0.561 0.434-1.12 0.868-1.7 1.31-9.88 7.56-9.88 7.56-19.1 15.9-1.18 1.03-2.36 2.06-3.56 3.06-1.71 1.44-3.37 2.87-4.95 4.45-1.51 1.5-3.09 2.83-4.74 4.17-3.39 2.87-6.24 6.04-9.12 9.41-5.65 6.57-5.65 6.57-9.63 7.9-0.433 0.866-0.433 0.866-0.875 1.75-1.52 3.04-3.61 4.99-6.12 7.25h-2c-0.227 0.557-0.454 1.11-0.688 1.69-2.27 4-4.93 6.85-9.31 8.31-0.33 0.66-0.66 1.32-1 2-0.33 0.66-0.66 1.32-1 2-0.99 0.33-1.98 0.66-3 1-0.69 1.66-1.35 3.33-2 5-2.65 3.6-5.64 6.92-8.55 10.3-1.87 2.19-3.66 4.44-5.45 6.7-0.608 0.757-1.22 1.51-1.84 2.29-5.78 7.26-11.3 14.5-15.9 22.6-1.29 2.06-1.29 2.06-2.66 3.4-2.54 2.58-4.4 5.64-6.38 8.66-0.443 0.671-0.886 1.34-1.34 2.03-1.31 1.99-2.61 3.97-3.91 5.97-0.648 0.994-1.3 1.99-1.96 3.01-7.08 11-13.3 22.3-19.1 34-1.64 3.33-3.3 6.65-4.97 9.97h-2c-0.238 0.835-0.238 0.835-0.48 1.69-1.21 3.96-2.47 7.48-4.77 10.9-4 6.05-6.8 12.8-9.75 19.4l-1.61 3.59c-3.04 6.96-5.75 14-8.22 21.2-0.811 2.24-1.7 4.46-2.66 6.64-1.65 3.94-2.86 7.88-4.01 12-0.435 1.51-0.871 3.03-1.31 4.54-0.206 0.713-0.412 1.43-0.625 2.16-0.656 2.22-1.37 4.42-2.13 6.61-2.9 8.51-5.42 17.2-6.95 26-0.614 2.84-1.57 5.52-2.49 8.28-5.39 19.7-8.6 39.9-12 60-0.189 1.11-0.377 2.22-0.572 3.36-3.06 18.4-4.7 37.3-4.36 56-0.0691 2.66-0.0691 2.66-1.07 5.66-0.0811 1.55-0.108 3.11-0.0977 4.67l0.00977 2.71c0.00838 0.929 0.0168 1.86 0.0254 2.81 0.00451 0.94 0.00902 1.88 0.0137 2.85 0.0118 2.32 0.0282 4.64 0.0488 6.96-0.99-0.33-1.98-0.66-3-1-0.61-6.02-1.13-11.9-1-18h2c-0.16-0.837-0.32-1.67-0.484-2.54-2.38-16 0.352-32.6 2.06-48.5 0.406-3.8 0.797-7.6 1.19-11.4 1.25-12 2.8-23.8 5.24-35.6 0.254-1.38 0.504-2.75 0.75-4.13 1.23-6.9 2.67-13.6 4.62-20.4 0.964-3.81 1.31-7.57 1.63-11.5h2c0.124-1.13 0.248-2.27 0.375-3.44 0.977-7.84 3.13-15.1 5.62-22.6h2c-0.206-0.598-0.412-1.2-0.625-1.81-0.375-2.19-0.375-2.19 1.62-5.19 0.629-1.88 0.629-1.88 1.06-3.88 0.164-0.699 0.327-1.4 0.496-2.12 0.512-2.33 1-4.66 1.44-7.01h2l0.586-2.41c2.59-10.5 2.59-10.5 4.41-15.6-2.61 1.31-2.68 2.36-3.62 5.06l-0.789 2.22c-0.193 0.566-0.387 1.13-0.586 1.71h-3c0.66 0.33 1.32 0.66 2 1-0.33 1.65-0.66 3.3-1 5h-1c-2.13 6.89-4.25 13.8-6.29 20.7-0.524 1.71-1.08 3.4-1.65 5.1-0.988 3.01-1.87 6.01-2.72 9.06-0.3 1.08-0.601 2.16-0.91 3.28-0.462 1.67-0.462 1.67-0.934 3.38-0.613 2.22-1.23 4.44-1.84 6.66-0.27 0.978-0.54 1.96-0.818 2.96-0.58 1.99-1.21 3.97-1.88 5.94-0.859 2.63-1.48 5.15-2 7.87-0.17 0.878-0.339 1.76-0.514 2.66-0.254 1.35-0.254 1.35-0.514 2.72-0.342 1.81-0.686 3.62-1.04 5.43-0.15 0.794-0.299 1.59-0.453 2.41-0.449 1.85-0.449 1.85-1.45 2.85-0.282 1.32-0.513 2.66-0.719 4l-0.387 2.44c-0.13 0.846-0.26 1.69-0.395 2.56-0.257 1.67-0.517 3.33-0.781 5-0.114 0.743-0.228 1.48-0.346 2.25-0.373 1.75-0.373 1.75-1.37 2.75-0.476 2.97-0.891 5.93-1.27 8.92-0.121 0.941-0.242 1.88-0.367 2.85-0.399 3.14-0.789 6.28-1.18 9.42-0.134 1.07-0.268 2.14-0.405 3.25-2.53 20.4-4.17 40.9-5.49 61.4-0.0736 1.11-0.147 2.22-0.223 3.37-0.137 2.08-0.266 4.16-0.387 6.24-0.298 4.54-0.564 8.43-2.68 12.5-2.07-3.11-2.25-3.81-2.27-7.34-0.0094-0.883-0.0188-1.77-0.0285-2.67 7.8e-4 -0.961 0.00156-1.92 0.00237-2.91-0.00546-1.01-0.0109-2.01-0.0166-3.05-0.0117-3.3-0.0052-6.6 0.00484-9.9 8.26e-4 -1.12 0.00165-2.24 0.0025-3.39 0.0254-15 0.424-29.9 1.68-44.8 0.063-0.758 0.126-1.52 0.191-2.3 0.592-6.92 1.26-13.8 2.93-20.5 1.02-4.35 1.61-8.78 2.31-13.2 6.91-42.4 6.91-42.4 13.4-60.7 2.67-7.62 4.94-15.4 6.79-23.2h2c-0.205-0.565-0.41-1.13-0.621-1.71-0.487-2.94 0.245-4.27 1.56-6.91 1.6-3.05 1.6-3.05 2.06-6.38h2c-0.33-1.65-0.66-3.3-1-5 0.66-0.33 1.32-0.66 2-1 0.962-2.68 1.82-5.33 2.62-8.06 0.229-0.759 0.459-1.52 0.695-2.3 0.567-1.88 1.12-3.76 1.68-5.64h-2l-0.375 2.69c-0.574 3.04-1.28 5.54-2.62 8.31-0.66 0.33-1.32 0.66-2 1-0.739 2.37-0.739 2.37-1.31 5.25-2.36 10-6.37 19.4-10.7 28.8h-2c-0.33 1.65-0.66 3.3-1 5h-2c0.259-2.17 0.533-4.33 0.812-6.5 0.151-1.21 0.302-2.41 0.457-3.66 0.792-4.17 2.21-7.91 3.73-11.8 0.517-1.37 1.03-2.74 1.55-4.11 1.46-3.88 2.92-7.76 4.39-11.6 0.625-1.66 1.25-3.32 1.87-4.97 3.57-9.5 7.2-18.9 11.2-28.3l0.977-2.3c0.853-2.01 1.72-4.01 2.59-6.01 0.278-0.65 0.556-1.3 0.842-1.97 1.42-3.27 2.94-6.4 4.73-9.48 1.76-3.05 2.88-5.87 3.86-9.23h2l0.48-1.65c0.233-0.754 0.467-1.51 0.707-2.29 0.331-1.1 0.331-1.1 0.668-2.21 1.67-4.16 3.93-7.95 6.14-11.8 0.874-1.59 1.75-3.17 2.61-4.76 4.9-8.94 9.83-17.9 14.9-26.7 0.857-1.5 1.69-3.01 2.46-4.55h2l0.711-2.55c1.49-4 3.5-7.14 5.91-10.6 0.448-0.659 0.896-1.32 1.36-2 6.09-8.91 12.5-17.5 19.2-26 2.01-2.52 3.84-4.98 5.47-7.77 0.429-0.688 0.859-1.38 1.3-2.09h2c0.244-0.553 0.487-1.11 0.738-1.68 1.53-2.81 3.39-5.06 5.45-7.51 3.6-4.32 7.05-8.71 10.4-13.2 0.465-0.522 0.931-1.04 1.41-1.58h2l0.688-2.19c1.58-3.39 3.51-5.35 6.31-7.81 0.99-0.33 1.98-0.66 3-1 0.248-0.722 0.495-1.44 0.75-2.19 1.53-3.44 3.45-4.83 6.33-7.15 1.99-1.72 3.65-3.53 5.36-5.54 3.62-4.24 7.34-8.47 11.6-12.1h2c0.249-0.587 0.498-1.17 0.754-1.78 1.42-2.53 2.96-3.93 5.18-5.79 2.95-2.47 2.95-2.47 5.69-5.15 1.37-1.29 1.37-1.29 3.37-1.29v-2c1.57-1.59 1.57-1.59 3.69-3.38 0.728-0.617 1.46-1.23 2.21-1.87 0.695-0.579 1.39-1.16 2.11-1.75 0.949-0.804 1.9-1.61 2.88-2.44 2.12-1.56 2.12-1.56 4.12-1.56 0.196-0.55 0.392-1.1 0.594-1.67 2-3.31 4.87-5.34 7.91-7.64 0.625-0.483 1.25-0.966 1.89-1.46 4.44-3.41 8.97-6.66 13.6-9.79 1.87-1.35 3.38-2.79 4.99-4.44 1.38-0.939 2.75-1.87 4.15-2.78 2.2-1.46 4.33-3 6.47-4.54 4.76-3.36 9.72-6.27 14.8-9.11 2.28-1.4 3.71-2.71 5.57-4.58 1.85-1.23 3.73-2.41 5.62-3.56 0.841-0.511 0.841-0.511 1.7-1.03 5.5-3.33 11-6.59 16.6-9.83 3.73-2.18 7.43-4.4 11.1-6.7 5.62-3.39 11.6-6.04 17.6-8.79 4.3-1.99 8.53-4.12 12.8-6.27 6.45-3.26 13-6.12 19.7-8.81 1.9-0.812 3.79-1.62 5.69-2.44 5.68-2.37 11.4-4.43 17.3-6.42 4.44-1.53 8.73-3.29 13.1-5.14 9.24-3.28 18.6-6.19 28-9 1-0.306 2.01-0.611 3.04-0.926 16.1-4.78 32.6-8.75 49.2-11.4 2.74-0.473 5.42-1.01 8.12-1.63 4.51-1.02 9.02-1.78 13.6-2.45 0.843-0.125 1.69-0.25 2.55-0.378 7.14-1.04 14.3-1.94 21.4-2.81 1.52-0.185 1.52-0.185 3.07-0.373 33.7-3.98 68.1-4.04 102-2.06zm-23.9 0.0625v1h5v-1h-5zm-57 1 4 1zm91 1v1h5v-1h-5zm17 9c3.12 2.08 5.19 2.4 8.87 2.75 2.42 0.279 4.75 0.754 7.13 1.25 2.79 0.538 5.58 1.05 8.38 1.56 1.09 0.208 1.09 0.208 2.21 0.42 4.55 0.825 8.79 1.16 13.4 1.02v2c2.27 0.336 4.54 0.669 6.81 1 1.9 0.278 1.9 0.278 3.83 0.562 3.29 0.502 3.29 0.502 6.36 0.438v2c1.16 0.193 2.32 0.387 3.51 0.586 1.54 0.263 3.08 0.526 4.62 0.789 1.14 0.189 1.14 0.189 2.3 0.383 4.35 0.75 8.41 1.71 12.6 3.24v1c0.904 0.193 1.81 0.387 2.74 0.586 1.18 0.26 2.36 0.521 3.57 0.789 1.17 0.255 2.34 0.51 3.55 0.773 3.14 0.852 3.14 0.852 6.14 2.85 3.38 0.613 6.76 1.02 10.2 1.44 0.936 0.186 1.87 0.371 2.84 0.562 0.495 0.99 0.495 0.99 1 2 0.99-0.495 0.99-0.495 2-1v2c0.961 0.273 0.961 0.273 1.94 0.551 4.08 1.19 8.06 2.37 11.9 4.14 3.17 1.57 3.17 1.57 7.12 1.31 0.33 0.66 0.66 1.32 1 2 0.66-0.33 1.32-0.66 2-1 0.33 0.66 0.66 1.32 1 2h4v2c1.96 0.67 3.92 1.34 5.88 2 1.09 0.371 2.18 0.743 3.3 1.12 2.65 0.974 2.65 0.974 4.82 0.875v2c1.67 0.716 3.34 1.43 5.01 2.14 1.79 0.772 3.58 1.56 5.36 2.36 3.56 1.47 7.12 2.65 10.8 3.75 1.82 0.746 1.82 0.746 2.82 2.75 4.24 2.41 4.24 2.41 9 3v2c1.75 0.817 3.5 1.63 5.25 2.44 0.975 0.452 1.95 0.905 2.95 1.37 2.67 1.23 2.67 1.23 5.09 1.73 0.562 0.153 1.12 0.307 1.7 0.465 0.33 0.66 0.66 1.32 1 2 1.38 1.07 2.8 2.09 4.25 3.06 0.768 0.527 1.54 1.05 2.33 1.6 2.51 1.39 4.59 1.93 7.42 2.34v2c2.91 2.04 4.4 3 8 3 0.33 0.66 0.66 1.32 1 2 2.82 2.32 5.85 4.16 9 6 0.887 0.557 1.77 1.11 2.69 1.69 2.16 1.48 2.16 1.48 4.31 1.31v2c3.22 2.32 3.22 2.32 7 3 0.33 0.66 0.66 1.32 1 2 1.58 1.34 1.58 1.34 3.44 2.62 0.926 0.669 0.926 0.669 1.87 1.35 1.65 1.2 1.65 1.2 3.69 1.02v2c2.56 2.3 3.48 3 7 3v2c0.804 0.289 1.61 0.577 2.44 0.875 2.56 1.12 2.56 1.12 3.56 3.12 3.07 3.01 3.07 3.01 7 4v2c2.64 2.4 2.64 2.4 6 3v2c2.64 2.4 2.64 2.4 6 3v2c1.45 1.29 2.96 2.5 4.5 3.69 4.94 3.95 9.59 8.1 14.2 12.4 0.669 0.632 1.34 1.26 2.03 1.92 1.38 1.31 2.77 2.62 4.15 3.93 3.62 3.43 7.25 6.86 10.9 10.3 0.667 0.632 1.33 1.26 2.02 1.91 2.97 2.79 5.88 5.5 9.23 7.84 0.66-0.33 1.32-0.66 2-1-11.7-13.1-23.7-26.3-37.6-37.1-2.52-2-4.87-4.12-7.24-6.3-5.48-4.98-11.3-9.54-17.1-14-1.43-1.09-2.85-2.19-4.27-3.29-35.6-27.5-75.7-50.8-117-69.3-2.21-1.04-4.42-2.08-6.62-3.12-6.4-2.94-12.9-5.55-19.5-8.12-1.91-0.752-3.81-1.52-5.7-2.29-7.34-2.98-14.7-5.77-22.2-8.39-2.7-0.964-5.37-1.99-8.02-3.08v-1c-0.635-0.141-1.27-0.282-1.92-0.427-2.9-0.646-5.8-1.3-8.7-1.95-0.999-0.222-2-0.443-3.03-0.672-7.69-1.73-7.69-1.73-11.4-2.99-4.2-1.39-8.5-2.14-12.8-2.96-5.78-1.1-11.4-2.28-17.1-4v-1c-4.55-0.601-9.1-1.19-13.7-1.76-1.55-0.197-3.09-0.398-4.64-0.603-2.23-0.295-4.47-0.577-6.7-0.856-0.681-0.0927-1.36-0.185-2.06-0.281-4.89-0.594-9.11-0.253-13.9 0.503zm381 221c0.33 0.99 0.66 1.98 1 3v-3h-1zm3 4c0.66 1.32 1.32 2.64 2 4v-3c-0.66-0.33-1.32-0.66-2-1zm4 5c1.33 3.59 2.83 6.84 5 10h2c0.268 0.928 0.536 1.86 0.812 2.81 1.13 3.04 1.88 4.08 4.19 6.19 0.33 0.99 0.66 1.98 1 3h2c0.66 1.98 1.32 3.96 2 6h2v4h2c0.251 0.849 0.503 1.7 0.762 2.57 1.33 3.67 3.07 6.9 5.05 10.2 0.719 1.24 1.44 2.47 2.16 3.71 0.522 0.893 0.522 0.893 1.05 1.8 5.57 9.54 5.57 9.54 7.66 14.7 0.974 3.1 0.974 3.1 3.31 4 1.07 2.29 1.07 2.29 2.12 5.06l1.07 2.79c0.266 0.71 0.531 1.42 0.805 2.15h2c0.182 0.675 0.364 1.35 0.551 2.05 0.251 0.892 0.503 1.78 0.762 2.7 0.244 0.882 0.487 1.76 0.738 2.67 0.981 2.67 2.23 4.34 3.95 6.58 0.7 1.65 1.37 3.32 2 5 0.796 1.63 1.61 3.26 2.44 4.88 3.24 6.43 5.94 13 8.59 19.7 0.797 1.98 1.63 3.94 2.47 5.91 6.47 15.1 12.1 30.4 16.5 46.2 0.77 2.6 1.6 5.09 2.6 7.61 1.32 3.54 2.15 6.91 2.85 10.6 0.454 2.11 0.454 2.11 1.52 4.02 1.18 2.41 1.61 4.61 2.07 7.25 0.359 3.2 0.359 3.2 1.94 5.81 0.348 1.55 0.654 3.12 0.938 4.69 0.744 3.9 1.69 7.58 3.06 11.3 0.66-0.33 1.32-0.66 2-1-0.545-4.69-1.43-9.26-2.44-13.9-0.246-1.13-0.492-2.26-0.746-3.43-0.269-0.889-0.539-1.78-0.816-2.7-0.66-0.33-1.32-0.66-2-1-0.309-1.86-0.309-1.86-0.438-4.31-0.483-6.1-1.97-11.8-3.56-17.7-0.336-1.33-0.671-2.67-1-4h-2c-0.098-0.822-0.196-1.64-0.297-2.49-0.874-6.53-2.11-12.2-4.75-18.3-1.29-3.02-2.13-6.06-2.95-9.23h-2c-0.33-2.64-0.66-5.28-1-8h-2c0.33-0.99 0.66-1.98 1-3-0.845-2.67-0.845-2.67-2.19-5.56-0.463-1.06-0.926-2.12-1.4-3.22-0.465-1.06-0.931-2.12-1.41-3.22-0.759-1.85-1.51-3.7-2.25-5.56-0.472-1.18-0.472-1.18-0.953-2.38-0.646-1.67-1.23-3.36-1.8-5.06h-2c-0.103-0.887-0.206-1.77-0.312-2.69-0.724-3.49-1.84-5.3-3.69-8.31-0.589-1.46-1.16-2.92-1.71-4.39-2.47-6.26-5.54-12.2-8.67-18.1-0.828-1.6-0.828-1.6-1.67-3.22-3.01-5.76-6.16-11.4-9.55-16.9-1.33-2.21-2.59-4.45-3.82-6.72-3.11-5.65-6.54-11.1-9.96-16.6-0.634-1.02-1.27-2.04-1.92-3.09-5.63-9-11.6-17.7-18.1-26.1-0.437-0.575-0.874-1.15-1.32-1.74-1.07-1.4-2.18-2.77-3.3-4.13h-1zm-974 116 1 2zm-1 2 1 2zm-1 2-3 7 2 1c0.66-2.64 1.32-5.28 2-8h-1zm-15 8 1 2zm12 0 1 2zm-13 2c-0.33 1.32-0.66 2.64-1 4h2c-0.33-1.32-0.66-2.64-1-4zm12 0 1 3zm-3 3c-0.371 1.26-0.743 2.52-1.12 3.81-0.209 0.708-0.418 1.42-0.633 2.14-0.503 2.35-0.503 2.35 1.76 5.04 0.66-1.98 1.32-3.96 2-6-0.33-0.33-0.66-0.66-1-1 0.66-0.66 1.32-1.32 2-2v-2h-3zm-11 3 1 2zm8 6 1 2zm1088 47 1 3zm1 4 1 3zm1 4 1 3zm1 3c0.33 4.95 0.66 9.9 1 15l3-3c-0.297-3.01-0.297-3.01-1.31-6.19-0.306-1.09-0.611-2.17-0.926-3.29-0.251-0.831-0.503-1.66-0.762-2.52h-1zm-1110 11 1 2zm1114 5c-0.33 1.32-0.66 2.64-1 4 0.66-0.33 1.32-0.66 2-1-0.33-0.99-0.66-1.98-1-3zm-8 10c0.141 2.46 0.287 4.92 0.438 7.38 0.0393 0.699 0.0786 1.4 0.119 2.12 0.186 3.88 0.186 3.88 1.44 7.51 0.352 1.33 0.688 2.66 1 4 2.37-2.95 2.37-2.95 2-7h-2c0.206-0.825 0.412-1.65 0.625-2.5 0.469-4.38-0.392-7.29-1.62-11.5h-2zm5 19c-1.3 1.07-1.3 1.07-1.06 3.56 0.0206 0.804 0.0412 1.61 0.0625 2.44 0.66-0.33 1.32-0.66 2-1v-5h-1zm-1136 34 1 2zm1118 42 1 4zm-3 25v8h1v-8h-1zm38 32 1 3zm-44 59 1 4zm35 20 1 2zm-5 26 1 2zm-3 52v2c0.66-0.33 1.32-0.66 2-1-0.66-0.33-1.32-0.66-2-1zm0 3c-0.532 1.6-1.05 3.21-1.56 4.81l-0.879 2.71c-0.808 2.59-0.808 2.59 0.441 5.48 1.32-4.29 2.64-8.58 4-13h-2zm-4 13 1 3zm-32 76 1 2zm-2 3 1 2zm-3 6 1 2zm-1 2 1 2zm-1 2 1 2zm-3 5 1 2zm-1 2 1 2zm-1 2 1 2zm-1 2c-3.3 5.28-6.6 10.6-10 16 0.66 0.66 1.32 1.32 2 2 1.53-2.62 3.05-5.25 4.56-7.88 0.438-0.746 0.875-1.49 1.33-2.26 0.409-0.715 0.819-1.43 1.24-2.17 0.382-0.66 0.765-1.32 1.16-2 0.235-0.56 0.47-1.12 0.713-1.7-0.33-0.66-0.66-1.32-1-2zm-11 18c-0.33 0.99-0.66 1.98-1 3-1.49 1.29-1.49 1.29-3.31 2.62-4.24 3.48-5.76 7.36-7.69 12.4-0.652 1.34-1.31 2.68-2 4h3c1.62-1.62 1.62-1.62 3.06-3.75 0.76-1.04 0.76-1.04 1.54-2.11 1.31-2 2.36-3.99 3.4-6.14 0.867-1.59 1.74-3.17 2.62-4.75 0.446-0.799 0.892-1.6 1.35-2.42 0.338-0.603 0.675-1.21 1.02-1.83-0.66-0.33-1.32-0.66-2-1zm-15 23c-1.57 1.83-1.57 1.83-3.25 4.31l-2.15 3.03c-0.406 0.573-0.812 1.15-1.23 1.74-7.64 10.7-15.4 21.3-24.1 31.3-3.88 4.49-7.41 9.15-10.8 14-1.46 1.67-1.46 1.67-4.46 2.67-1.82 1.72-1.82 1.72-3.56 3.81-0.599 0.687-1.2 1.37-1.82 2.08-1.68 2.02-1.68 2.02-2.65 4.3-0.973 1.8-0.973 1.8-3.97 2.8-0.144 0.639-0.289 1.28-0.438 1.94-0.186 0.681-0.371 1.36-0.562 2.06-1.31 0.704-2.65 1.36-4 2-1.71 1.62-3.37 3.3-5 5-0.545 0.525-1.09 1.05-1.65 1.59-1.49 1.43-2.92 2.92-4.35 4.41v2c-0.959 0.402-0.959 0.402-1.94 0.812-2.39 1.07-2.39 1.07-3.06 4.19-1.32 0.702-2.65 1.37-4 2-0.463 0.463-0.926 0.926-1.4 1.4-2.16 2.16-4.63 3.72-7.17 5.41-0.471 0.391-0.941 0.781-1.43 1.18v2c-1.49 0.495-1.49 0.495-3 1v3c-0.701 0.0412-1.4 0.0825-2.12 0.125-4.03 1.23-6.26 3.65-8.88 6.88-0.392 0.755-0.784 1.51-1.19 2.29-2.61 3.9-6.03 6.45-9.69 9.34-0.708 0.572-1.42 1.14-2.14 1.73-2.93 2.34-5.75 4.51-8.99 6.41-0.657 0.405-1.31 0.81-1.99 1.23v2l-1.56 0.684c-3.37 1.82-6.37 4.1-9.44 6.38-0.667 0.492-1.33 0.985-2.02 1.49-3.99 2.95-7.96 5.94-11.9 8.95-7.18 5.41-14.6 10.4-22.1 15.5l3 2c17.5-10.1 17.5-10.1 33-23 2.19-1.19 2.19-1.19 4-2v-2c1.45-0.402 1.45-0.402 2.94-0.812 1.52-0.588 1.52-0.588 3.06-1.19 0.33-0.99 0.66-1.98 1-3 1.02-0.402 1.02-0.402 2.06-0.812 5.43-2.2 9.84-6.06 13.9-10.2 0.722-0.516 1.44-1.03 2.19-1.56 0.598-0.474 1.2-0.949 1.81-1.44v-2l2.25-0.75c3.02-1.37 4.44-2.9 6.75-5.25 1.57-1.27 3.15-2.52 4.75-3.75 4.16-3.28 7.91-6.76 11.6-10.6 1.69-1.66 1.69-1.66 4.69-3.66v-2c0.585-0.26 1.17-0.519 1.77-0.787 2.39-1.3 3.96-2.7 5.87-4.63l2.05-2.06c0.698-0.71 1.4-1.42 2.12-2.15 0.686-0.687 1.37-1.37 2.08-2.08 7.2-7.26 13.8-15 20.2-22.9 1.19-1.45 2.38-2.9 3.57-4.35 0.558-0.684 1.12-1.37 1.69-2.07 1.04-1.26 2.09-2.51 3.15-3.74 2.63-2.71 2.63-2.71 3.46-6.21 0.99-0.33 1.98-0.66 3-1 1.82-2.17 1.82-2.17 3.62-4.88 2.84-4.03 5.78-7.9 8.94-11.7 5.69-6.87 10.7-14.1 15.3-21.7 1.14-1.69 1.14-1.69 2.71-3.21 2.1-2.16 2.61-4.63 3.43-7.48h-2zm-179 174c-0.66 0.66-1.32 1.32-2 2 0.99 0.33 1.98 0.66 3 1v-3h-1zm-11.1 6.38c-8.53 5.42-17.2 10.5-25.9 15.6 0.66 0.33 1.32 0.66 2 1 2.07-0.788 2.07-0.788 4.37-2.06 0.881-0.464 1.76-0.928 2.67-1.41 0.937-0.505 1.87-1.01 2.84-1.53 1.42-0.758 1.42-0.758 2.87-1.53 2.76-1.48 5.51-2.97 8.26-4.47 0.714-0.384 1.43-0.768 2.16-1.16 5.08-2.67 5.08-2.67 9.84-5.84v-3c-3.48 0-6.21 2.54-9.06 4.38zm-98.8 45.3c-6.16 2.86-12.6 4.74-19.1 6.71-1.29 0.396-2.58 0.791-3.86 1.19-9.69 2.97-19.4 5.77-29.2 8.38v2c-1.65-0.33-3.3-0.66-5-1v2c8.02-0.553 15.3-2.64 22.9-5 1.31-0.399 2.63-0.798 3.94-1.2 12.8-3.92 25.5-8.29 38.1-12.8v-2c-3.76 0-4.74 0.156-7.88 1.72zm-82.1 20.3 4 1z" fill="#F9FAFB"/>
<path transform="translate(968,459)" d="m0 0c5.76 1.62 10.7 4.42 15.9 7.31 6.25 3.47 12.5 6.91 18.9 10.2 1.1 0.573 2.19 1.15 3.32 1.74 2.13 1.11 4.28 2.21 6.42 3.3 0.968 0.509 1.94 1.02 2.93 1.54 0.86 0.442 1.72 0.884 2.61 1.34 1.97 1.57 1.97 1.57 2.75 4.25 0.0707 0.765 0.141 1.53 0.214 2.32-4.28 2.48-8.57 4.8-13 7-1.25 0.622-2.49 1.24-3.73 1.87-17.8 8.88-17.8 8.88-20.1 10.1-1.33 0.668-2.66 1.34-3.99 2.02-4.38 2.22-8.82 4.3-13.3 6.37-7.37 3.42-14.6 7.02-21.9 10.7-1.62 0.814-3.25 1.63-4.88 2.44-0.789 0.394-1.58 0.789-2.39 1.2l-6.34 3.17c-0.652 0.326-1.3 0.652-1.97 0.988-1.36 0.682-2.73 1.36-4.1 2.05-3.53 1.77-7.06 3.53-10.6 5.31-0.699 0.352-1.4 0.703-2.12 1.07-1.32 0.663-2.63 1.33-3.95 1.99-4.07 2.05-8.2 3.93-12.4 5.77-3.82 1.7-7.59 3.48-11.4 5.27-0.821 0.389-1.64 0.778-2.49 1.18-7.24 3.45-14.4 7.01-21.6 10.6-3.08 1.55-6.17 3.1-9.26 4.64-1.14 0.568-2.27 1.14-3.45 1.72-18.2 9.09-18.2 9.09-20.7 10.3-1.72 0.87-3.43 1.77-5.12 2.7-8.67 4.66-8.67 4.66-14.4 3.57-3.01-1.37-5.91-2.87-8.83-4.42-3.01-1.5-5.9-2.58-9.11-3.58-6.64-2.09-12.8-5.01-19.1-8-6.01-2.78-12.1-5.27-18.3-7.72-5.94-2.36-11.8-4.81-17.7-7.28-1.96-0.813-3.92-1.63-5.88-2.44-5.58-2.32-11.1-4.71-16.7-7.09-3.16-1.35-6.33-2.66-9.5-3.97-5.35-2.22-10.6-4.64-15.8-7.09-3.46-1.57-6.96-2.98-10.5-4.35-2.6-1.05-5.13-2.2-7.67-3.39-6.75-3.09-13.7-5.72-20.6-8.36-4.38-1.69-8.64-3.39-12.8-5.57-4.07-2-6.13-2.11-10.5-1.74-0.682 1.99-1.34 4-2 6-0.25 0.705-0.501 1.41-0.759 2.14-2.19 6.55-2.7 12.5-2.62 19.4-0.0116 0.968-0.0232 1.94-0.0352 2.93 0.0304 7.55 0.548 15.1 5.47 21.1 3.65 3.08 7.34 4.81 11.7 6.7 0.855 0.382 1.71 0.765 2.59 1.16 2.77 1.24 5.55 2.46 8.33 3.68 1.92 0.853 3.83 1.71 5.75 2.56 3.79 1.69 7.58 3.38 11.4 5.06 6.55 2.91 13.1 5.91 19.6 8.94 7 3.25 14 6.47 21.1 9.62 9.29 4.16 18.6 8.39 27.8 12.6 0.76 0.348 1.52 0.696 2.3 1.05 8.48 3.88 17 7.76 25.4 11.7 10.5 4.83 21 9.61 31.6 14.3 2.49 1.12 4.98 2.25 7.47 3.38 1.62 0.733 3.25 1.47 4.87 2.2 0.74 0.339 1.48 0.677 2.24 1.03 0.692 0.311 1.38 0.622 2.1 0.943 0.601 0.273 1.2 0.545 1.82 0.826 3.66 1.36 5.87 2.09 9.65 0.692 0.984-0.528 1.97-1.06 2.98-1.6 1.66-0.875 1.66-0.875 3.35-1.77 1.18-0.643 2.37-1.29 3.55-1.93 1.22-0.653 2.45-1.3 3.68-1.95 2.45-1.3 4.89-2.61 7.33-3.92 3.62-1.94 7.25-3.86 10.9-5.76 2.26-1.18 4.51-2.37 6.77-3.56 5.31-2.8 10.6-5.58 16-8.36 0.961-0.501 1.92-1 2.91-1.52 4.92-2.57 9.85-5.13 14.8-7.68 9.65-5 19.2-10.1 28.7-15.4 5.39-3.01 10.9-5.82 16.4-8.54 4.87-2.4 9.68-4.91 14.5-7.47 5.34-2.85 10.7-5.63 16.1-8.31 8.59-4.26 17.1-8.69 25.6-13.2 3.77-1.98 7.56-3.93 11.4-5.85 0.867-0.443 1.73-0.886 2.63-1.34 1.62-0.828 3.25-1.65 4.88-2.46 4.33-2.23 7.16-4.23 9.94-8.39 2.48 3.66 3.49 6.61 4 11-5.84 4.72-11.9 8.29-18.6 11.7-1.37 0.709-1.37 0.709-2.77 1.43-3.59 1.85-7.18 3.67-10.8 5.46-3.39 1.72-6.69 3.6-9.99 5.48-6.95 3.94-14 7.7-21.1 11.4-5.23 2.74-10.4 5.53-15.6 8.38-1.71 0.928-3.45 1.8-5.2 2.66-2.54 1.3-4.89 2.69-7.31 4.19-5.08 3.09-10.3 5.72-15.7 8.34-6.44 3.18-12.7 6.59-19 10.1-5.13 2.86-10.3 5.65-15.5 8.37-0.799 0.42-1.6 0.84-2.42 1.27-4.76 2.5-9.53 4.98-14.3 7.45-9.96 5.15-19.9 10.3-29.6 15.9-4.34 2.48-8.73 4.77-13.2 6.93-2.16 1.05-2.16 1.05-4.92 2.97-8.45 0-15.5-3.5-23-7v-2c-0.629-0.17-1.26-0.34-1.91-0.516-5.1-1.44-9.74-3.1-14.4-5.62-1.86-1.01-1.86-1.01-4.69-1.87v-2c-0.557-0.098-1.11-0.196-1.69-0.297-5.69-1.11-10.2-2.95-15.3-5.7-7.99-4.09-16.1-7.91-24.3-11.4-3.93-1.7-7.8-3.5-11.7-5.34-1.5-0.71-3.01-1.42-4.51-2.13-0.751-0.355-1.5-0.709-2.27-1.07-11.6-5.49-23.3-11-35.2-16-7.42-3.16-14.6-6.76-21.8-10.4-4.4-2.24-8.75-4.22-13.4-5.88-1.95-0.753-3.75-1.64-5.6-2.61-3.57-1.86-7.22-3.2-11-4.56-4.85-1.83-8.03-3.43-11.3-7.56-1.14-1.05-1.14-1.05-2.31-2.12-1.69-1.88-1.69-1.88-1.69-4.88h-2c-0.53-1.62-1.05-3.25-1.56-4.88-0.29-0.905-0.58-1.81-0.879-2.74-0.559-2.38-0.559-2.38 0.441-4.38h-2c-3-15.3-1.68-31.7 5.99-45.4 3.62-4.74 8.49-6.62 13.9-8.88 1.12-0.501 2.23-1 3.38-1.52 3.23-1.44 6.48-2.84 9.74-4.23 1.56-0.686 3.12-1.37 4.67-2.07 2.57-1.14 5.15-2.27 7.74-3.38 4.16-1.81 8.26-3.71 12.4-5.64 6.27-2.94 12.6-5.84 18.9-8.73 1.57-0.721 1.57-0.721 3.16-1.46 0.99-0.454 1.98-0.908 3-1.38 0.884-0.406 1.77-0.812 2.68-1.23 7.03-3.13 7.03-3.13 10.5-3.13v3h-2c0.0872 3.06 0.194 6.12 0.312 9.19 0.0226 0.864 0.0451 1.73 0.0684 2.62 0.249 6.64 0.249 6.64 3.62 12.2 35.6 28.4 90.1 35.1 134 30.2 24.2-3.28 48.4-10.3 68-25.2 0.802-0.597 1.6-1.19 2.43-1.81 4.62-3.69 6.61-6.32 7.57-12.2 1.9 0.481 1.9 0.481 3.84 0.973 5.26 1.16 10.3 1.45 15.7 1.46 0.951 0.00387 1.9 0.00773 2.88 0.0117 8.82-0.142 16.4-2.18 24.6-5.45 0.0251-0.813 0.0501-1.63 0.0759-2.46 0.116-3.66 0.238-7.32 0.362-11 0.059-1.92 0.059-1.92 0.119-3.88 0.0419-1.21 0.0838-2.43 0.127-3.68 0.0367-1.13 0.0733-2.25 0.111-3.41 0.205-2.59 0.205-2.59 1.21-3.59z" fill="#F7F8F9"/>
<path transform="translate(855 331)" d="m0 0c2.71 0.855 5.45 1.54 8.21 2.21 3.47 0.859 6.93 1.78 10.4 2.7 1.58 0.418 3.16 0.837 4.75 1.25 0.817 0.216 1.63 0.432 2.48 0.655 11.8 3.13 23.7 6.25 35.6 9.17 8.07 1.99 16.1 4.16 24 6.49 4.71 1.37 9.42 2.66 14.2 3.86 1.05 0.265 2.09 0.53 3.17 0.803 2.03 0.508 4.05 1.01 6.08 1.5 0.916 0.23 1.83 0.46 2.78 0.697 0.809 0.197 1.62 0.395 2.45 0.598 2.56 0.912 4.25 1.94 6.23 3.8 0.391 3.36 0.391 3.36 0.25 7.19-0.0361 1.27-0.0722 2.54-0.109 3.86-0.0464 0.976-0.0928 1.95-0.141 2.96-5.45 1.86-10.9 3.61-16.4 5.24-1.77 0.527-3.54 1.07-5.31 1.62-0.887 0.275-1.77 0.549-2.69 0.832-0.803 0.251-1.61 0.503-2.43 0.762-2.13 0.551-2.13 0.551-5.13 0.551-0.66-3.96-1.32-7.92-2-12-1.51-0.124-3.01-0.248-4.56-0.375-1.73-0.145-3.45-0.291-5.18-0.437-1.68-0.141-3.37-0.279-5.05-0.416-3.11-0.254-6.22-0.513-9.33-0.772-1.03-0.083-2.06-0.166-3.13-0.251-0.971-0.082-1.94-0.164-2.94-0.249-0.877-0.0722-1.75-0.144-2.66-0.219-2.15-0.281-2.15-0.281-4.15-1.28-2.03-0.244-4.07-0.435-6.11-0.601-1.29-0.107-2.57-0.214-3.9-0.325-0.69-0.0558-1.38-0.112-2.09-0.169-2.17-0.176-4.33-0.36-6.5-0.545-6.16-0.528-12.3-1.05-18.5-1.55-3.77-0.306-7.54-0.627-11.3-0.957-1.43-0.122-2.86-0.239-4.28-0.35-9.47-0.738-18-2.13-26.4-6.61-2.93-1.37-5.64-1.15-8.84-1.14-1.21-0.00516-2.41-0.0103-3.65-0.0156-3.29 0.256-5.46 0.871-8.41 2.27-1.67 0.667-3.33 1.33-5 2v6c4.8 3.03 8.23 4.6 14 5 0.69 0.0516 1.38 0.103 2.09 0.156 4.24 0.179 7.49-0.255 11.5-1.72 11.1-3.54 24.6-0.122 35.9 1.19 15.8 1.8 31.6 3.2 47.5 4.66 1.71 0.159 1.71 0.159 3.45 0.32 2.15 0.2 4.31 0.398 6.46 0.595 5.09 0.472 10.1 1.02 15.2 1.8-0.33 3.3-0.66 6.6-1 10-1.13 0.326-2.27 0.652-3.44 0.988-1.52 0.441-3.04 0.883-4.56 1.32-0.744 0.213-1.49 0.427-2.25 0.646-5.02 1.46-9.87 3.16-14.7 5.04-5.98 2.17-12.1 3.84-18.2 5.45-8.41 2.22-16.7 4.82-24.9 7.61-6.8 2.28-13.7 4.11-20.6 5.91-6.57 1.71-12.9 3.56-19.3 6.03-7.66 2.62-13.1 4.3-20.7 0.932-5.09-2.08-10.4-3.71-15.6-5.43-1.31-0.436-2.63-0.871-3.94-1.31-11.6-3.84-23.2-7.61-34.9-11.3-7.86-2.53-15.7-5.11-23.5-7.74-4.32-1.43-8.66-2.77-13-4.09-4.16-1.27-8.31-2.57-12.5-3.87-4.46-1.4-8.92-2.77-13.4-4.13-1.15-0.352-2.3-0.703-3.49-1.07-2.29-0.698-4.57-1.39-6.86-2.09-11.8-3.61-11.8-3.61-17.1-5.85-1.43-2.85-1.13-5.32-1.12-8.5-0.00258-1.17-0.00516-2.33-0.00781-3.53 0.133-2.97 0.133-2.97 1.13-4.97 2-0.79 2-0.79 4.64-1.55 0.977-0.284 1.95-0.568 2.96-0.86 1.06-0.298 2.12-0.595 3.21-0.902 1.08-0.311 2.17-0.621 3.29-0.941 7.54-2.14 15.1-4.11 22.7-5.97 5.49-1.34 10.9-2.8 16.4-4.34 5.68-1.61 11.4-3.07 17.1-4.38 6.47-1.47 12.8-3.21 19.2-5.06 7.12-2.08 14.2-3.96 21.5-5.6 4.47-1.02 8.91-2.14 13.3-3.33 1.81-0.483 1.81-0.483 3.66-0.977 2.15-0.575 4.29-1.16 6.43-1.76 21.4-6.03 38.4-2.45 59.2 4.94z" fill="#F8F9FA"/>
<path transform="translate(718,411)" d="m0 0c7.3 0.423 13.9 2.7 20.8 4.97 1.24 0.401 2.48 0.803 3.75 1.22 3.3 1.07 6.59 2.14 9.88 3.22 3.26 1.07 6.52 2.12 9.78 3.18 1.29 0.419 2.58 0.838 3.87 1.26 2.56 0.832 5.12 1.66 7.69 2.49 6.14 1.99 12.3 4.01 18.4 6.1 1.12 0.379 2.25 0.758 3.41 1.15 2.09 0.704 4.17 1.42 6.25 2.16 9.43 3.15 17.1 1.94 26.4-1.04 0.733-0.227 1.47-0.453 2.22-0.686 2.35-0.727 4.69-1.47 7.03-2.21 1.63-0.508 3.26-1.01 4.89-1.52 7.25-2.25 14.5-4.54 21.7-6.86 8.1-2.59 16.2-5.03 24.4-7.37 1.09-0.319 2.17-0.639 3.29-0.968 1.02-0.288 2.03-0.576 3.08-0.872 0.905-0.26 1.81-0.521 2.74-0.789 2.58-0.457 3.97-0.14 6.45 0.566 0.116 9.97 0.205 19.9 0.259 29.9 0.0261 4.63 0.0615 9.26 0.118 13.9 0.0543 4.47 0.0842 8.93 0.0972 13.4 0.00924 1.7 0.0273 3.41 0.0543 5.11 0.0363 2.39 0.0413 4.77 0.039 7.16 0.027 1.06 0.027 1.06 0.0545 2.14-0.0392 3.72-0.355 5.11-3.01 7.81-2.3 1.39-3.97 2.19-6.61 2.58v2c-24.2 11.7-24.2 11.7-36.9 13.6-2.1 0.184-2.1 0.184-3.12 1.39-29 4.51-61.5 5.98-90-2-1.02-0.246-2.04-0.492-3.09-0.746-15.3-3.72-28.5-9.19-40.9-19.3-0.699-0.547-1.4-1.09-2.12-1.66-2.54-3.16-2.42-5.87-2.35-9.76-0.00219-0.74-0.00438-1.48-0.00664-2.24-0.00231-2.44 0.0239-4.88 0.0508-7.32 0.00492-1.7 0.00822-3.39 0.00996-5.09 0.00764-3.55 0.0282-7.1 0.0591-10.6 0.0397-4.56 0.0576-9.12 0.0673-13.7 0.00995-4.34 0.0299-8.68 0.0511-13 0.0034-0.833 0.00679-1.67 0.0103-2.52 0.0115-2.34 0.03-4.69 0.051-7.03 0.00269-0.701 0.00538-1.4 0.00815-2.12 0.0539-4.79 0.0539-4.79 1.17-5.9z" fill="#F9FAFB"/>
<path transform="translate(606,861)" d="m0 0v2c0.722 0.268 1.44 0.536 2.19 0.812 6.64 2.81 10.3 6.68 14.8 12.2 0.626 0.752 1.25 1.5 1.9 2.28 8.37 10.3 8.37 10.3 7.79 17.7-0.227 1.01-0.454 2.02-0.688 3.06-5.92 0.423-9.29-1.33-14.3-4.39-12.2-7.23-28.2-11.5-42.3-7.96-2.36 0.832-2.36 0.832-5.39 2.35-1.49 0.495-1.49 0.495-3 1 0.0606 0.865 0.121 1.73 0.184 2.62 0.297 4.46 0.561 8.92 0.816 13.4 0.088 1.49 0.088 1.49 0.178 3 1.96 34.3 1.96 34.3-7.18 48-4.48 1.46-9.33 1.22-14 1.25-0.794 0.0206-1.59 0.0412-2.41 0.0625-4.68 0.0312-7.85-0.192-11.6-3.31-1.51-2.05-1.51-2.05-2.69-4.31-0.396-0.739-0.791-1.48-1.2-2.24-2.45-5.4-3.58-10.5-3.93-16.4-0.0685-1.18-0.0685-1.18-0.138-2.38-0.487-13.2 1.45-26.6 2.95-39.7-13.3-5.36-26.4-5.43-39.9-0.25-10.8 4.01-10.8 4.01-19.1 11.2-3.35-1.18-5.82-2.14-8-5 0.096-5.13 2.11-9.84 5-14 0.413-0.804 0.825-1.61 1.25-2.44 2.41-3.54 5.4-5.97 8.75-8.56 1.51-1.17 1.51-1.17 3.04-2.36 12-9.03 24.5-14.7 39-18.6 0.973-0.287 1.95-0.575 2.95-0.871 28.5-7.95 59.3-1.47 85.1 11.9zm-77 32 1 2z" fill="#F9FAFB"/>
<path transform="translate(784,890)" d="m0 0c5.5-0.0988 11-0.171 16.5-0.22 1.87-0.0201 3.74-0.0474 5.61-0.082 2.69-0.0485 5.38-0.0712 8.06-0.0889 0.838-0.0206 1.68-0.0413 2.54-0.0626 5.8-0.00224 5.8-0.00224 8.28 2.32 1.15 2.44 1.87 4.76 2.5 7.38 1.02 3.99 2.17 7.79 3.67 11.6 1.05 2.69 2.03 5.41 3.02 8.12 0.344 0.949 0.688 1.9 1.04 2.88 0.254 0.701 0.508 1.4 0.77 2.12h3c0.254-0.918 0.508-1.84 0.77-2.78 1.83-6.51 3.65-13 6.23-19.2 0.428-1.04 0.856-2.08 1.3-3.15 1.23-2.95 2.46-5.9 3.7-8.85 1.89-0.0619 1.89-0.0619 3.81-0.125 1.06-0.0348 1.06-0.0348 2.14-0.0703 2.04 0.195 2.04 0.195 5.04 2.2-0.364 0.766-0.364 0.766-0.734 1.55-2.5 5.42-4.48 10.9-6.32 16.6-2.47 7.51-5.49 14.8-8.5 22.1-0.434 1.06-0.869 2.11-1.32 3.2-1.12 2.55-1.12 2.55-2.12 3.55-2.14 0.273-2.14 0.273-4.81 0.375-0.873 0.049-1.75 0.098-2.64 0.148-2.54-0.523-2.54-0.523-4.68-2.49-2.35-3.82-3.63-7.63-4.93-11.9-1.73-5.53-3.58-10.8-5.94-16.1-1.25-3.31-1.25-3.31-2-6 0.33-0.66 0.66-1.32 1-2h-2c-0.66-2.31-1.32-4.62-2-7h-2c-0.33 1.32-0.66 2.64-1 4-1.82 0.0909-1.82 0.0909-3.68 0.184-1.58 0.0844-3.17 0.169-4.75 0.254-0.802 0.0393-1.6 0.0786-2.43 0.119-3.88-0.151-3.88-0.151-7.13 1.44-0.0718 1.52-0.0839 3.04-0.0625 4.56 0.00902 0.826 0.018 1.65 0.0273 2.5 0.0116 0.638 0.0232 1.28 0.0352 1.93 1.48 0.0909 1.48 0.0909 2.99 0.184 1.28 0.0838 2.56 0.168 3.88 0.254 1.28 0.0812 2.55 0.162 3.87 0.246 3.26 0.316 3.26 0.316 5.26 1.32v7c-1.07 0.0606-2.14 0.121-3.25 0.184-1.4 0.0844-2.79 0.169-4.19 0.254-0.707 0.0393-1.41 0.0786-2.14 0.119-3.51-0.0804-3.51-0.0804-6.42 1.44-0.0718 1.52-0.0839 3.04-0.0625 4.56 0.00902 0.826 0.018 1.65 0.0273 2.5 0.0116 0.638 0.0232 1.28 0.0352 1.93 1.22 0.0606 2.43 0.121 3.68 0.184 1.58 0.0844 3.17 0.169 4.75 0.254 0.802 0.0393 1.6 0.0786 2.43 0.119 6.02 0.33 6.02 0.33 7.13 1.44v8h-28c-1.17-2.34-1.13-3.72-1.13-6.33-0.00315-0.894-0.0063-1.79-0.00955-2.71 0.00202-0.968 0.00405-1.94 0.00613-2.93-9.57e-4 -0.991-0.00191-1.98-0.0029-3-6.81e-4 -2.1 0.00117-4.2 0.00534-6.29 0.00535-3.22 5.32e-5 -6.44-0.00635-9.66 6.61e-4 -2.04 0.00194-4.07 0.00391-6.11-0.00202-0.968-0.00405-1.94-0.00613-2.93 0.00473-1.34 0.00473-1.34 0.00955-2.71 7.96e-4 -0.789 0.00159-1.58 0.00241-2.39 0.127-1.94 0.127-1.94 1.13-3.94z" fill="#F9FAFB"/>
<path transform="translate(937,396)" d="m0 0c2.12 0.375 2.12 0.375 4 1 0.00411 0.761 0.00822 1.52 0.0125 2.31 0.033 3.46 0.104 6.92 0.175 10.4 0.0058 1.2 0.0116 2.4 0.0176 3.63 0.0201 6.9 0.0201 6.9 3.22 12.8 0.849 0.633 1.7 1.27 2.57 1.92 2.96 4.28 1.97 8.83 1.68 13.8 0.0152 3.29 0.0152 3.29 2.32 5.44 2.59 3.56 2.47 5.66 2.4 10-0.00566 0.681-0.0113 1.36-0.0172 2.06-0.0223 2.16-0.0724 4.32-0.123 6.48-0.0201 1.47-0.0383 2.94-0.0547 4.41-0.0439 3.59-0.113 7.18-0.195 10.8-4.72 1.03-9.13 1.18-13.9 1.19-0.786 0.0122-1.57 0.0245-2.38 0.0371-4.62 0.0116-8.35-0.403-12.7-2.22-2.74-2.74-1.64-10.4-1.81-14.1-0.0767-1.22-0.153-2.45-0.232-3.71-0.315-7.01-0.283-11.5 4.04-17.2h2c-0.33-1.03-0.66-2.06-1-3.12-1.4-5.03-1.81-8.38 0.75-13.1 2.14-2.62 3.28-3.43 6.25-4.75 0.0297-1.17 0.0297-1.17 0.0601-2.35 0.095-3.51 0.205-7.01 0.315-10.5 0.0309-1.22 0.0619-2.45 0.0938-3.71 0.058-1.75 0.058-1.75 0.117-3.54 0.0314-1.08 0.0628-2.16 0.0952-3.27 0.319-2.61 0.319-2.61 2.32-4.61z" fill="#F9FAFB"/>
<path transform="translate(677 891)" d="m0 0c1.36 1.11 1.36 1.11 2.75 2.25 0.701 0.557 1.4 1.11 2.12 1.69 0.928 1.14 0.928 1.14 1.88 2.31 0.446 0.535 0.892 1.07 1.35 1.62 5.15 7.38 4.93 16.7 3.65 25.4-1.14 3.48-2.44 6.35-5 9-0.99 0.33-1.98 0.66-3 1-0.33 0.99-0.66 1.98-1 3-7.99 4.2-15.2 5.02-23.9 3.06-7.83-2.52-13.2-9.03-17.1-16.1-2.59-8.48-1.03-16.3 3-24 3.05-4.76 7.28-8.71 12.7-10.6 6.7-1.2 16.5-2.06 22.6 1.34zm-24.9 12.1c-3.85 5.31-5.08 9.61-4.31 16.2 1.28 4.72 2.81 7.2 6.81 9.88 5.2 2.85 8.98 3.65 14.8 2.06 3.44-1.32 6.4-2.73 8.62-5.81 2.44-6.39 1.92-14.6-0.812-20.8-2.18-3.54-4.33-5.09-8.38-6.31-6.83-0.736-11.8-0.321-16.7 4.81z" fill="#F6F7F8"/>
<path transform="translate(1111 893)" d="m0 0c6.19 6.26 8.55 13.3 8.75 22-0.0801 7.14-1.21 13.2-5.89 18.8-6.74 6.3-14.2 6.54-23.1 6.36-8.34-0.602-13-5.09-18.3-11.2-4.18-5.93-4.74-11.9-4-19 2.24-8.01 5.99-14.3 13-18.9 8.95-4.75 21.6-4.44 29.6 2.05zm-28.2 9.56c-4.23 5.54-4.79 11.3-3.92 18 0.932 3.54 2.72 5.14 5.61 7.3 0.701 0.598 1.4 1.2 2.12 1.81 4.57 1.89 9 1.83 13.9 1.19 4.57-2.21 6.78-4.49 9-9 0.782-5.96 1.18-12.7-1.62-18.2-3.15-3.72-5.66-5.52-10.6-6.05-6.16-0.184-9.99 0.445-14.5 4.93z" fill="#F6F7F8"/>
<path transform="translate(1056,892)" d="m0 0c6.35 5.98 9.63 10.8 10.3 19.8-0.00516 1.26-0.0103 2.51-0.0156 3.81 0.00773 1.89 0.00773 1.89 0.0156 3.82-0.26 3.54-0.985 6.32-2.27 9.62h-2c-0.186 0.722-0.371 1.44-0.562 2.19-1.95 3.81-4.67 5.85-8.44 7.81-8.61 2.3-18 2.05-26-2-6.13-4.09-10-9.47-11.6-16.7-0.929-7.79-0.287-13.9 4.23-20.4 5.23-6.42 10.6-10.4 18.9-11.7 6.38-0.455 12.1 0.156 17.5 3.82zm-26.7 10.8c-3.78 5.31-4.88 9.76-4.31 16.2 1.3 4.7 2.82 7.22 6.81 9.88 5.2 2.85 8.98 3.65 14.8 2.06 3.4-1.32 6.42-2.69 8.62-5.74 2.28-6.13 2.04-13.8-0.141-19.9-1.74-3.01-3.4-4.89-6.29-6.82-7.5-1.36-13.9-1.44-19.4 4.25zm27.7 11.2 1 2z" fill="#F7F8F9"/>
<path transform="translate(969,890)" d="m0 0c6.75-0.125 6.75-0.125 9 1v18c7.26 0.33 14.5 0.66 22 1-0.0395-5.83-0.0395-5.83-0.0901-11.7-0.0025-0.726-5e-3 -1.45-0.00757-2.2-0.00786-1.12-0.00786-1.12-0.0159-2.25 0.114-1.88 0.114-1.88 1.11-3.88 6.75-0.125 6.75-0.125 9 1v48h-8c-1.12-2.24-1.19-3.65-1.32-6.13-0.0419-0.806-0.0838-1.61-0.127-2.44-0.0393-0.842-0.0786-1.68-0.119-2.55-0.0432-0.849-0.0864-1.7-0.131-2.57-0.106-2.1-0.207-4.2-0.307-6.3-3.31-0.0289-6.62-0.0468-9.94-0.0625-0.946-0.00838-1.89-0.0168-2.87-0.0254-0.899-0.00322-1.8-0.00645-2.72-0.00977-0.833-0.00524-1.67-0.0105-2.52-0.0159-1.95-0.103-1.95-0.103-2.95 1.11-0.156 1.41-0.251 2.83-0.316 4.25-0.0419 0.854-0.0838 1.71-0.127 2.59-0.059 1.35-0.059 1.35-0.119 2.72-0.0432 0.902-0.0864 1.8-0.131 2.73-0.106 2.23-0.208 4.47-0.307 6.71h-8c-1.13-2.26-1.2-3.69-1.32-6.2-0.0421-0.869-0.0841-1.74-0.127-2.63-0.0392-0.942-0.0783-1.88-0.119-2.85-0.0417-0.966-0.0835-1.93-0.126-2.93-0.291-7.38-0.417-14.8-0.436-22.1-0.00459-0.993-0.00918-1.99-0.0139-3.01 0.00201-0.92 0.00403-1.84 0.0061-2.79 0.00113-0.813 0.00226-1.63 0.00342-2.46 0.129-1.99 0.129-1.99 1.13-3.99zm0 23 1 2z" fill="#F9FAFB"/>
<path transform="translate(956,892)" d="m0 0c2.7 2.43 5.22 4.81 7 8-0.195 2.68-0.195 2.68-1 5-2.56 1.79-3.83 2-7 2-4-4.34-4-4.34-4-7-6.15-1.64-12.6-2.13-18.4 0.562-3.86 3.59-6.28 6.7-6.94 11.9-0.106 4.43-0.153 8.69 2.31 12.5 5.43 4.16 10.1 5.89 17 5 4.84-1.69 8.64-4.09 12-8 1.32 0.66 2.64 1.32 4 2v2h2c-0.417 4.86-2.37 6.86-6 10-5.26 3.51-9.53 4.2-15.8 4.25-0.691 0.0206-1.38 0.0412-2.09 0.0625-6.27 0.0472-10.9-1.4-15.8-5.5-4.73-5.6-7.99-10.3-8.38-17.8-0.0851-0.762-0.17-1.52-0.258-2.31-0.521-7.26 1.68-12.1 6.26-17.7 8.97-8.65 23.9-12.3 35-5z" fill="#F5F6F7"/>
<path transform="translate(908 892)" d="m0 0c2.91 3.84 4.2 5.74 3.94 10.6-3.03 0.229-5.98 0.364-9 0-1.62-1.94-1.62-1.94-3-4-4.62-1.13-8.38-1.01-13 0-0.417 2.87-0.417 2.87 0 6 3.67 2.74 7.6 3.91 11.9 5.25 7.02 2.42 10.7 5 14.1 11.8 0.243 4.94 0.255 8.49-2 13h-2c-0.33 0.99-0.66 1.98-1 3-7.11 3.37-13.2 4.02-20.7 1.75-5.28-1.94-9.4-4.85-12.3-9.75v-4c2.64-1.28 4.55-2.01 7.5-1.94 3.34 1.25 5.1 3.34 7.5 5.94 2.23 1.11 3.53 1.16 6 1.19 0.701 0.0142 1.4 0.0284 2.12 0.043 2.12-0.0653 2.12-0.0653 3.88-2.23 0.0722-3.5 0.0722-3.5-1-7-2.85-2.58-5.65-3.17-9.31-3.88-6-1.21-10.7-3.8-14.7-8.5-1.61-4.23-1.38-7.87-0.438-12.2 2.9-4.79 7.37-7.32 12.7-8.81 6.74-1.2 13.4-0.429 18.8 3.88z" fill="#F6F7F8"/>
<path transform="translate(739,890)" d="m0 0h10c0.519 0.999 1.04 2 1.57 3.03 0.704 1.3 1.41 2.61 2.11 3.91 0.51 0.989 0.51 0.989 1.03 2 2.16 3.98 2.16 3.98 6.05 6.01 0.736 0.0193 1.47 0.0387 2.23 0.0586 0.309-1.21 0.309-1.21 0.625-2.44 1.82-4.73 3.54-9.12 7.38-12.6 3.78-0.764 7.2-0.548 11 0v2c-0.433 0.413-0.866 0.825-1.31 1.25-1.85 1.74-1.85 1.74-3 4.38-1.82 3.64-3.98 6.88-6.29 10.2-1.3 2-2.38 3.99-3.4 6.15h-2c-0.33 8.25-0.66 16.5-1 25h-9c-1.16-2.31-1.08-3.51-0.992-6.07 0.0251-1.22 0.0251-1.22 0.0508-2.47 0.0437-1.7 0.0955-3.4 0.156-5.1 0.131-7.62-1.6-13.5-6.03-19.8-0.514-0.742-1.03-1.49-1.56-2.25-0.538-0.763-1.08-1.53-1.63-2.31-1.13-1.64-2.26-3.29-3.38-4.94-0.503-0.731-1.01-1.46-1.52-2.21-1.1-1.85-1.1-1.85-1.1-3.85z" fill="#F8F9FA"/>
<path transform="translate(708,890)" d="m0 0c2.33-0.0424 4.67-0.0409 7 0 1.61 1.61 1.34 3.47 1.54 5.7 0.087 0.962 0.174 1.92 0.264 2.92 0.087 1.01 0.174 2.03 0.264 3.07 0.0909 0.995 0.182 1.99 0.275 3.01 0.884 9.99 0.884 9.99 0.662 14.3-0.33 0.33-0.66 0.66-1 1-0.106 2.25-0.185 4.5-0.25 6.75-0.491 7.91-0.491 7.91-3.19 10.6-5.34 3.52-10.3 3.04-16.6 2.69-3.75-1-3.75-1-6-2 0.25-3.38 0.25-3.38 1-7 1.81-1.56 1.81-1.56 4-2 1.34 0.649 2.67 1.32 4 2 3.32-0.275 3.32-0.275 6-2 0.148-2.71 0.235-5.41 0.281-8.12 0.0184-0.815 0.0368-1.63 0.0558-2.47 0.0589-2.62 0.112-5.23 0.163-7.85 0.0675-3.44 0.141-6.87 0.219-10.3 0.0136-0.796 0.0272-1.59 0.0411-2.41 0.127-5.62 0.127-5.62 1.24-7.84z" fill="#F7F8F9"/>
<path transform="translate(1125,890)" d="m0 0c6.15-0.0977 6.15-0.0977 8 0 2.11 2.11 1.26 6.71 1.32 9.63 0.0208 0.864 0.0416 1.73 0.063 2.62 0.0656 2.77 0.124 5.54 0.183 8.31 0.0432 1.87 0.0868 3.75 0.131 5.62 0.107 4.6 0.209 9.21 0.307 13.8 5.28 0.33 10.6 0.66 16 1-0.33 2.64-0.66 5.28-1 8-3.79 0.0579-7.58 0.0936-11.4 0.125-1.08 0.0168-2.16 0.0335-3.27 0.0508-1.03 0.00645-2.06 0.0129-3.12 0.0195-1.43 0.0157-1.43 0.0157-2.89 0.0317-2.34-0.227-2.34-0.227-4.34-2.23-0.241-2.02-0.241-2.02-0.227-4.54 1.51e-4 -0.941 3.02e-4 -1.88 4.58e-4 -2.85 0.0103-1.02 0.0206-2.04 0.0313-3.08 0.00283-1.04 0.00566-2.08 0.00858-3.15 0.0112-3.33 0.0363-6.66 0.0617-10 0.01-2.26 0.0192-4.51 0.0273-6.77 0.0221-5.54 0.0556-11.1 0.0977-16.6z" fill="#F2F3F4"/>
<path transform="translate(726,890)" d="m0 0c6.75-0.125 6.75-0.125 9 1 0.0247 6.03 0.0429 12.1 0.0549 18.1 0.00502 2.05 0.0118 4.1 0.0205 6.15 0.0122 2.95 0.0178 5.9 0.0222 8.85 0.00516 0.915 0.0103 1.83 0.0156 2.77 3.66e-4 4.17-0.046 8.06-1.11 12.1h-8c-1.17-2.34-1.13-3.72-1.13-6.33-0.00315-0.894-0.0063-1.79-0.00955-2.71 0.00202-0.968 0.00405-1.94 0.00613-2.93-9.57e-4 -0.991-0.00191-1.98-0.0029-3-6.81e-4 -2.1 0.00117-4.2 0.00534-6.29 0.00535-3.22 5.32e-5 -6.44-0.00635-9.66 6.61e-4 -2.04 0.00194-4.07 0.00391-6.11-0.00202-0.968-0.00405-1.94-0.00613-2.93 0.00473-1.34 0.00473-1.34 0.00955-2.71 7.96e-4 -0.789 0.00159-1.58 0.00241-2.39 0.127-1.94 0.127-1.94 1.13-3.94z" fill="#F9FAFB"/>
<path transform="translate(631,530)" d="m0 0c5.47 0.563 9.71 2.54 14.6 4.94 1.48 0.719 2.96 1.44 4.44 2.15 0.691 0.335 1.38 0.67 2.09 1.02 2.26 1.07 4.57 2 6.9 2.9 0.66 0.33 1.32 0.66 2 1 0.99 0.33 1.98 0.66 3 1 0.66 0.66 1.32 1.32 2 2 1.44 0.531 2.9 1 4.38 1.44 3.38 1.07 5.96 2.13 8.62 4.56-2.64 1.02-4.44 1.2-7.12 0.246-1.56-0.713-3.11-1.44-4.65-2.19-2.67-1.27-5.4-2.19-8.23-3.06v-2c-0.722-0.124-1.44-0.247-2.19-0.375-2.77-0.616-5.19-1.56-7.81-2.62h-2v-2c-0.543-0.116-1.09-0.232-1.64-0.352-2.81-0.774-5.37-1.85-8.04-3.02-0.973-0.42-1.95-0.84-2.95-1.27-2.36-1.35-2.36-1.35-3.36-4.35z" fill="#B1B2B3"/>
<path transform="translate(343,1067)" d="m0 0c0.33 0.66 0.66 1.32 1 2 2.02 1.13 2.02 1.13 4 2-0.33 0.66-0.66 1.32-1 2 0.608 0.098 1.22 0.196 1.84 0.297 2.61 0.852 3.19 1.67 4.66 3.95l1.27 1.91c0.607 0.911 0.607 0.911 1.23 1.84 1.32 1.67 2.66 3.34 4 5 1.01 1.33 2.01 2.66 3 4-0.33 0.66-0.66 1.32-1 2 0.99 0.33 1.98 0.66 3 1 0.66 0.66 1.32 1.32 2 2 0.99 0.66 1.98 1.32 3 2 0.33 0.99 0.66 1.98 1 3 0.825 0.825 1.65 1.65 2.5 2.5 2.5 2.5 2.5 2.5 3.5 5.5 2 1.21 2 1.21 4 2-0.33 0.99-0.66 1.98-1 3-4.55-1.57-6.82-5.19-9.62-8.88-0.49-0.625-0.98-1.25-1.48-1.89-2.29-2.96-4.41-5.77-5.89-9.23h-2v-3c-0.639-0.247-1.28-0.495-1.94-0.75-2.06-1.25-2.06-1.25-2.62-3.31-0.217-0.959-0.217-0.959-0.438-1.94-0.99-0.33-1.98-0.66-3-1-1.82-1.96-1.82-1.96-3.69-4.38-0.623-0.791-1.25-1.58-1.89-2.4-1.43-2.23-1.43-2.23-1.43-5.23-0.99-0.33-1.98-0.66-3-1v-3z" fill="#656567"/>
<path transform="translate(867,1304)" d="m0 0c-8.6 4.96-21.5 3.28-31.2 3.56-1.04 0.0313-1.04 0.0313-2.1 0.0632-19.9 0.591-39.8 0.621-59.7-0.626v-1c1.27-0.0155 1.27-0.0155 2.56-0.0312 8.02-0.0987 16-0.201 24-0.308 4.12-0.0548 8.24-0.108 12.4-0.158 3.99-0.0483 7.98-0.101 12-0.156 1.51-0.0201 3.02-0.0389 4.53-0.0561 8.82-0.102 17.6-0.414 26.4-1.08 3.74-0.252 7.43-0.29 11.2-0.214z" fill="#000002"/>
<path transform="translate(893,1293)" d="m0 0v1c-30.1 3.97-59.6 5.17-90 5v-1c0.858-0.0276 0.858-0.0276 1.73-0.0557 36.9-1.14 36.9-1.14 73.6-4.36 4.92-0.569 9.7-0.7 14.6-0.586z" fill="#000002"/>
<path transform="translate(775,625)" d="m0 0c2 0.875 2 0.875 4 2 2.01 1.12 2.01 1.12 4.5 1.5 2.5 0.5 2.5 0.5 4.5 1.5 1.09 0.433 2.19 0.866 3.31 1.31 2.56 1.07 4.01 1.96 6.19 3.81 3.15 2.36 5.65 2.38 9.5 2.88 3.15 1.83 3.83 2.49 5 6-2.35-0.599-4.69-1.27-7-2-0.33-0.66-0.66-1.32-1-2-1.66-0.375-3.33-0.702-5-1-5.56-1.93-10.9-4.35-16.1-7.06-1.91-0.952-3.85-1.77-5.83-2.57-3.06-1.38-3.06-1.38-4.06-3.38 0.66-0.33 1.32-0.66 2-1z" fill="#9F9FA1"/>
<path transform="translate(633,546)" d="m0 0c11.5 4.61 22.7 9.84 34 15-3.88 1.29-7.11 1.04-11 0-2.13-1.17-4.1-2.48-6.1-3.86-2.55-1.54-4.96-1.92-7.9-2.14v-2c-2.64-0.66-5.28-1.32-8-2-0.33-1.65-0.66-3.3-1-5z" fill="#AFAFB1"/>
<path transform="translate(278,955)" d="m0 0c2.29 2.88 4.01 5.78 5.64 9.08 0.491 0.989 0.983 1.98 1.49 3 0.515 1.05 1.03 2.1 1.56 3.17 1.07 2.17 2.15 4.33 3.22 6.5 0.525 1.06 1.05 2.12 1.59 3.22 2.03 4.1 4.08 8.19 6.12 12.3 0.617 1.23 1.23 2.47 1.85 3.7 0.503 1.01 1.01 2.01 1.52 3.05 0.667 1.33 1.33 2.67 2 4h-3c-5.9-10.8-11.4-21.8-16.6-33-0.799-1.71-0.799-1.71-1.61-3.45-0.491-1.07-0.982-2.14-1.49-3.23-0.439-0.953-0.878-1.91-1.33-2.89-0.943-2.43-0.943-2.43-0.943-5.43z" fill="#000002"/>
<path transform="translate(646 567)" d="m0 0c0.755 0.284 1.51 0.567 2.29 0.859 0.794 0.294 1.59 0.588 2.41 0.891 0.732 0.284 1.46 0.567 2.22 0.859 0.949 0.33 1.9 0.66 2.88 1 2.12 1 2.12 1 3.56 2.56 2.28 2.1 4.56 2.1 7.56 2.44v3c-4.19-0.599-8.01-1.57-12-3v-2c-0.639-0.0825-1.28-0.165-1.94-0.25-4.27-1.05-8.09-2.89-12.1-4.75 3-2 3-2 5.09-1.61z" fill="#C5C6C7"/>
<path transform="translate(381,1112)" d="m0 0c1.3 1.3 2.59 2.61 3.88 3.94 2.06 2.1 2.06 2.1 4.38 3.69 0.577 0.454 1.15 0.908 1.75 1.38v2c0.99 0.33 1.98 0.66 3 1 1.61 1.85 1.61 1.85 3.19 4.06 0.53 0.733 1.06 1.47 1.61 2.22 0.398 0.566 0.797 1.13 1.21 1.71-0.99 0.33-1.98 0.66-3 1-1.11-1.39-1.11-1.39-2.25-2.81-2.05-2.48-4.17-4.27-6.75-6.19v-2c-0.99-0.33-1.98-0.66-3-1-2.19-1.94-2.19-1.94-4-4v-2c-0.66-0.33-1.32-0.66-2-1 0.66-0.66 1.32-1.32 2-2z" fill="#646566"/>
<path transform="translate(1204,1093)" d="m0 0c0 4.35-2.7 6.22-5.56 9.19-1.11 1.17-2.21 2.34-3.32 3.5-0.538 0.566-1.08 1.13-1.63 1.72-2.42 2.59-4.71 5.29-6.99 8.01-1.68 1.78-3.51 3.17-5.5 4.59 0-3 0-3 1.17-4.5 0.542-0.52 1.08-1.04 1.64-1.58 0.597-0.582 1.19-1.16 1.81-1.76 0.64-0.611 1.28-1.22 1.94-1.85 1.29-1.26 2.58-2.52 3.86-3.78 0.62-0.607 1.24-1.21 1.88-1.84 2.63-2.63 5.07-5.4 7.46-8.24 1.23-1.45 1.23-1.45 3.23-3.45z" fill="#000002"/>
<path transform="translate(718,601)" d="m0 0c4.6 0.434 6.84 0.704 10 4 1.99 0.363 4 0.692 6 1 2.4 0.89 4.67 1.93 7 3-0.33 0.66-0.66 1.32-1 2-8.1-0.54-14.9-4.4-22-8v-2z" fill="#646466"/>
<path transform="translate(250,699)" d="m0 0c1.24 6.66 1.09 13.2 1 20-0.99-0.33-1.98-0.66-3-1-0.61-6.02-1.13-11.9-1-18 2-1 2-1 3-1z" fill="#B6B7B8"/>
<path transform="translate(1080,1226)" d="m0 0v2c-2.12 1.17-4.25 2.34-6.38 3.5-0.603 0.334-1.21 0.668-1.83 1.01-4.57 2.49-4.57 2.49-6.8 2.49 1.86-4.72 5.17-7.09 9.62-9.31 2.38-0.688 2.38-0.688 5.38 0.312z" fill="#DADADC"/>
<path transform="translate(792,634)" d="m0 0c2.31-0.188 2.31-0.188 5 0 0.454 0.474 0.908 0.949 1.38 1.44 2.47 2.38 5.29 2.1 8.62 2.56 3.15 1.83 3.83 2.49 5 6-2.35-0.599-4.69-1.27-7-2-0.33-0.66-0.66-1.32-1-2-1.66-0.343-3.33-0.674-5-1-2.38-0.916-4.68-1.95-7-3v-2z" fill="#C4C5C6"/>
<path transform="translate(735,576)" d="m0 0h3c0.66 0.99 1.32 1.98 2 3 2.33 0.358 4.66 0.688 7 1 3.38 1.38 3.38 1.38 6 3 0.33 0.99 0.66 1.98 1 3-2.31-0.33-4.62-0.66-7-1v-2c-0.592-0.193-1.18-0.387-1.79-0.586-4.12-1.36-8.2-2.73-12.2-4.41l2-2z" fill="#8A8B8C"/>
<path transform="translate(413,1145)" d="m0 0c3 1 3 1 4.44 3.44 1.72 2.83 2.7 3.18 5.56 4.56 0.683 1.33 1.35 2.66 2 4 0.99 0.33 1.98 0.66 3 1-0.33 0.66-0.66 1.32-1 2-1.94-0.812-1.94-0.812-4-2-0.33-0.99-0.66-1.98-1-3-1.65-0.697-3.32-1.36-5-2-1.81-1.5-1.81-1.5-3-3v-2h-2c0.33-0.99 0.66-1.98 1-3z" fill="#494A4B"/>
<path transform="translate(631,530)" d="m0 0c6.23 0.505 11.5 3.33 17 6-5.74 1.91-9.07 0.746-14.3-1.83-1.67-1.17-1.67-1.17-2.67-4.17z" fill="#828384"/>
<path transform="translate(1227,1067)" d="m0 0c0 4.24-2.41 6.26-5.06 9.31-0.499 0.582-0.997 1.16-1.51 1.76-3.53 4.05-7.18 7.62-11.4 10.9 1.69-4.26 4.77-7.18 7.88-10.4 3.54-3.74 6.97-7.48 10.1-11.6z" fill="#000002"/>
<path transform="translate(633,546)" d="m0 0c1.96 0.786 3.92 1.58 5.88 2.38 1.64 0.661 1.64 0.661 3.3 1.34 2.82 1.29 2.82 1.29 4.82 3.29-1.65 0.66-3.3 1.32-5 2v-2c-2.64-0.66-5.28-1.32-8-2-0.33-1.65-0.66-3.3-1-5z" fill="#828384"/>
<path transform="translate(788,601)" d="m0 0c7.6 0.374 13.2 2.58 20 6-4.35 1.45-6.85 1.49-11.1-0.312-1.06-0.557-2.11-1.11-3.2-1.69-1.07-0.557-2.14-1.11-3.24-1.69-0.808-0.433-1.62-0.866-2.45-1.31v-1z" fill="#9E9FA0"/>
<path transform="translate(310,1018)" d="m0 0c2.44 0.688 2.44 0.688 5 2 0.812 2.62 0.812 2.62 1 5h2c1.75 2.25 1.75 2.25 3 5-0.922 2.17-0.922 2.17-2 4-9-13.4-9-13.4-9-16z" fill="#A8A9AA"/>
<path transform="translate(343,1067)" d="m0 0c0.33 0.66 0.66 1.32 1 2 2.02 1.13 2.02 1.13 4 2-0.33 0.66-0.66 1.32-1 2 0.603 0.0915 1.21 0.183 1.83 0.277 2.7 0.9 3.38 1.93 4.92 4.29 0.428 0.641 0.856 1.28 1.3 1.94 0.315 0.494 0.629 0.987 0.953 1.5-2.65-0.151-4.44-0.5-6.45-2.3-3.55-4.1-3.55-4.1-3.55-7.7-0.99-0.33-1.98-0.66-3-1v-3z" fill="#404042"/>
<path transform="translate(324,1040)" d="m0 0c0.33 0.66 0.66 1.32 1 2 0.99-0.33 1.98-0.66 3-1 5 7.26 5 7.26 5 12-4.43-1.48-4.91-3.9-7-8v-2h-2v-3z" fill="#666768"/>
<path transform="translate(491,900)" d="m0 0v2c-5.67 1.23-11.2 1.09-17 1v-2c11.5-1.15 11.5-1.15 17-1z" fill="#000002"/>
<path transform="translate(655,572)" d="m0 0h3c0.433 0.474 0.866 0.949 1.31 1.44 2.36 2.18 4.56 2.22 7.69 2.56v3c-4.19-0.598-8.09-1.36-12-3-0.33-0.99-0.66-1.98-1-3l1-1z" fill="#AEAEB0"/>
<path transform="translate(661,1289)" d="m0 0c7.63 0.61 14.7 2.8 22 5-3.01 0.938-5.01 1.01-8.07 0.293-0.75-0.175-1.5-0.349-2.27-0.529-0.773-0.19-1.55-0.38-2.34-0.576-1.18-0.268-1.18-0.268-2.38-0.541-2-0.478-3.97-1.06-5.94-1.65-0.33-0.66-0.66-1.32-1-2z" fill="#000002"/>
<path transform="translate(428,1159)" d="m0 0c4.72 2.36 8.36 6.25 12 10-4.69-0.284-7.21-2.51-10.6-5.43-1.36-1.57-1.36-1.57-1.36-4.57z" fill="#363638"/>
<path transform="translate(370,1102)" d="m0 0c0.99 0.33 1.98 0.66 3 1v2c0.99 0.33 1.98 0.66 3 1 0.66 0.66 1.32 1.32 2 2 0.99 0.66 1.98 1.32 3 2-0.33 0.99-0.66 1.98-1 3-3.42-1.42-5.1-3.07-7.25-6.06-0.781-1.07-0.781-1.07-1.58-2.16-1.17-1.78-1.17-1.78-1.17-2.78z" fill="#C1C2C3"/>
<path transform="translate(891,1301)" d="m0 0c-3.7 2.06-7.06 3.37-11.3 2.56-0.557-0.186-1.11-0.371-1.69-0.562v2h-8c-0.33-0.66-0.66-1.32-1-2 2.73-0.337 5.46-0.67 8.19-1 0.769-0.0954 1.54-0.191 2.33-0.289 3.85-0.463 7.59-0.836 11.5-0.711z" fill="#000002"/>
<path transform="translate(363,1093)" d="m0 0c4.19 1.82 6.18 2.83 8 7 2.03 1.73 2.03 1.73 4 3-0.33 0.66-0.66 1.32-1 2-4.41-2.97-7.98-5.54-11-10v-2z" fill="#7D7D7F"/>
<path transform="translate(701,578)" d="m0 0c4.84 0.99 9.48 1.96 14 4l-2 2c-2.06-0.207-2.06-0.207-4.44-0.812-0.782-0.192-1.56-0.384-2.37-0.582-1.75-0.482-3.47-1.03-5.19-1.61v-3z" fill="#8D8E8F"/>
<path transform="translate(337,1056)" d="m0 0c3.34 2.99 5.15 5.93 7 10-0.99 0.495-0.99 0.495-2 1-3.27-2.78-4.96-6.28-7-10 0.66-0.33 1.32-0.66 2-1z" fill="#676769"/>
<path transform="translate(759,603)" d="m0 0c3.3 0.33 4.62 0.623 7 3 2.12 1.12 2.12 1.12 5 2-0.33 0.66-0.66 1.32-1 2-4.69-1.22-8.71-2.7-13-5l2-2z" fill="#5E5F60"/>
<path transform="translate(559 1247)" d="m0 0c3.2 1.23 6.21 2.66 9.25 4.25l-4 2c-0.66-0.66-1.32-1.32-2-2-0.99-0.33-1.98-0.66-3-1-3-1-3-1-5-3 2-1 2-1 4.75-0.25z" fill="#7D7D7F"/>
<path transform="translate(1160,1135)" d="m0 0c0.33 0.99 0.66 1.98 1 3-5.44 3.96-5.44 3.96-11 8-0.66-0.33-1.32-0.66-2-1 1.17-0.957 1.17-0.957 2.37-1.93 1.01-0.826 2.02-1.65 3.07-2.5 1.01-0.824 2.02-1.65 3.06-2.5 1.8-1.48 1.8-1.48 3.5-3.07z" fill="#000002"/>
<path transform="translate(1198,1107)" d="m0 0c0.66 0.99 1.32 1.98 2 3-1.09 1.03-2.2 2.05-3.31 3.06-0.615 0.568-1.23 1.14-1.86 1.72-0.602 0.401-1.2 0.802-1.82 1.21-0.99-0.33-1.98-0.66-3-1l8-8z" fill="#000002"/>
<path transform="translate(484,1203)" d="m0 0c4.88 1.75 4.88 1.75 6 4 1.64 0.722 3.31 1.39 5 2l-4 2c-1.17-0.758-2.34-1.53-3.5-2.31-0.975-0.644-0.975-0.644-1.97-1.3-0.505-0.458-1.01-0.915-1.53-1.39v-3z" fill="#5C5C5E"/>
<path transform="translate(304 1e3)" d="m0 0c2.4 2.88 4.47 5.56 6 9-0.66 0.66-1.32 1.32-2 2-0.867-1.26-1.72-2.54-2.56-3.81-0.713-1.06-0.713-1.06-1.44-2.14-0.996-2.04-0.996-2.04 0.00391-5.04z" fill="#2E2E30"/>
<path transform="translate(633,562)" d="m0 0c1.46 0.451 2.92 0.911 4.38 1.38 0.812 0.255 1.62 0.51 2.46 0.773 2.16 0.852 2.16 0.852 4.16 2.85-3.59 0.919-5.42 1.25-8.88-0.25-0.701-0.577-1.4-1.15-2.12-1.75v-3z" fill="#818283"/>
<path transform="translate(911,1300)" d="m0 0c-1.5 1.5-2.95 1.32-5.04 1.54-1.21 0.131-1.21 0.131-2.45 0.264-0.85 0.087-1.7 0.174-2.58 0.264-0.854 0.0909-1.71 0.182-2.59 0.275-2.12 0.225-4.23 0.444-6.35 0.662v-2c2.79-0.362 5.58-0.715 8.38-1.06 1.19-0.156 1.19-0.156 2.41-0.314 5.99-0.736 5.99-0.736 8.22 0.377z" fill="#E6E7E8"/>
<path transform="translate(463,1163)" d="m0 0c3.28 1.49 5.93 3.39 8.75 5.62 1.2 0.947 1.2 0.947 2.42 1.91 0.603 0.482 1.21 0.964 1.83 1.46-0.99 0.495-0.99 0.495-2 1-1.28-0.909-2.55-1.83-3.81-2.75-0.708-0.51-1.42-1.02-2.14-1.55-2.07-1.73-3.52-3.49-5.04-5.7z" fill="#000002"/>
<path transform="translate(667,547)" d="m0 0c3.94-0.179 6.64-0.158 10 2l2 2c-4.93 1.64-7.54 0.186-12-2v-2z" fill="#C0C1C2"/>
<path transform="translate(405,1137)" d="m0 0c2.31 1.98 4.62 3.96 7 6-0.99 0.66-1.98 1.32-3 2-1.65-1.65-3.3-3.3-5-5 0.33-0.99 0.66-1.98 1-3z" fill="#141416"/>
<path transform="translate(512,1198)" d="m0 0c3.44 1.53 6.12 3.6 9 6-0.99 0.33-1.98 0.66-3 1v-2c-0.784-0.103-1.57-0.206-2.38-0.312-2.62-0.688-2.62-0.688-4.62-3.69 0.33-0.33 0.66-0.66 1-1z" fill="#29292B"/>
<path transform="translate(688,555)" d="m0 0c5.04 0.445 7.38 2.71 11 6-3.75 1.12-3.75 1.12-6 0v-2c-0.99-0.33-1.98-0.66-3-1-0.66-0.99-1.32-1.98-2-3z" fill="#919293"/>
<path transform="translate(750,614)" d="m0 0c2.97 0.99 5.94 1.98 9 3-0.33 0.99-0.66 1.98-1 3-3.82-0.531-6.06-1.5-9-4 0.33-0.66 0.66-1.32 1-2z" fill="#414143"/>
<path transform="translate(732,591)" d="m0 0c3 1 3 1 5.06 2.06 1.88 1.08 1.88 1.08 3.94 0.938 0.33 0.99 0.66 1.98 1 3l-2 1v-2c-0.908-0.103-1.82-0.206-2.75-0.312-3.27-0.692-4.79-1.51-7.25-3.69 0.66-0.33 1.32-0.66 2-1z" fill="#565758"/>
<path transform="translate(715,583)" d="m0 0c1.88 0.812 1.88 0.812 4 2 1.08 0.495 1.08 0.495 2.19 1 1.81 1 1.81 1 2.81 3-4.46-0.99-4.46-0.99-9-2v-2c-0.66-0.33-1.32-0.66-2-1 0.66-0.33 1.32-0.66 2-1z" fill="#8D8D8F"/>
<path transform="translate(1e3 1231)" d="m0 0c-2.27 0.866-4.54 1.72-6.81 2.56-0.964 0.37-0.964 0.37-1.95 0.748-4.9 1.8-4.9 1.8-8.24 0.689 2.08-0.868 4.16-1.72 6.25-2.56 1.16-0.476 2.32-0.951 3.52-1.44 3.1-0.954 4.31-1.21 7.23 0.00391z" fill="#000002"/>
<path transform="translate(777,594)" d="m0 0c3.78 1.09 6.47 1.91 9 5-1.69 0.75-1.69 0.75-4 1-2.75-1.81-2.75-1.81-5-4v-2z" fill="#AAABAC"/>
<path transform="translate(703,593)" d="m0 0c5.75 1.75 5.75 1.75 8 4-3.38 1.06-4.58 1.21-7.81-0.438-0.722-0.516-1.44-1.03-2.19-1.56l2-2z" fill="#939495"/>
<path transform="translate(664,563)" d="m0 0c6.05-0.195 6.05-0.195 8 0 2 2 2 2 4 5-4.39-0.665-7.98-2.19-12-4v-1z" fill="#C1C1C3"/>
<path transform="translate(687,1274)" d="m0 0c5.57 0.48 10.7 1.3 16 3v1c-5.57-0.48-10.7-1.3-16-3v-1z" fill="#000002"/>
<path transform="translate(1046,1243)" d="m0 0v2c-1.6 0.699-3.2 1.38-4.81 2.06-0.893 0.383-1.79 0.766-2.71 1.16-2.48 0.777-2.48 0.777-5.48-0.223 1.79-0.838 3.58-1.67 5.38-2.5 0.998-0.464 2-0.928 3.02-1.41 2.6-1.09 2.6-1.09 4.6-1.09z" fill="#000002"/>
<path transform="translate(1389,859)" d="m0 0h2c0.0816 4.16-0.0175 7.95-1 12h-2c0.33-3.96 0.66-7.92 1-12z" fill="#C8C8CA"/>
<path transform="translate(789,618)" d="m0 0c3.25-0.312 3.25-0.312 7 0 2.44 2.5 2.44 2.5 4 5-2.97-0.495-2.97-0.495-6-1v-2c-1.65-0.33-3.3-0.66-5-1v-1z" fill="#D4D5D6"/>
<path transform="translate(684,585)" d="m0 0c4.31 0.479 6.17 1.75 9 5-1.32 0.33-2.64 0.66-4 1v-2c-0.99-0.33-1.98-0.66-3-1-0.66-0.99-1.32-1.98-2-3z" fill="#969698"/>
<path transform="translate(606,1248)" d="m0 0c2.97 0.99 5.94 1.98 9 3-0.99 0.66-1.98 1.32-3 2v-2c-0.99 0.33-1.98 0.66-3 1-2.69-0.938-2.69-0.938-5-2 0.66-0.66 1.32-1.32 2-2z" fill="#343436"/>
<path transform="translate(771,608)" d="m0 0c0.66 0.33 1.32 0.66 2 1 1.66 0.356 3.33 0.692 5 1 0.33 1.32 0.66 2.64 1 4-3.15-0.699-6.03-1.76-9-3 0.33-0.99 0.66-1.98 1-3z" fill="#909192"/>
<path transform="translate(693,589)" d="m0 0c3.69 0.498 5.6 1.1 8 4-2.61 0.931-3.64 1.15-6.25 0.0625-0.577-0.351-1.15-0.701-1.75-1.06v-3z" fill="#69696B"/>
<path transform="translate(671,579)" d="m0 0c1.98 0.66 3.96 1.32 6 2-0.33 0.99-0.66 1.98-1 3-1.65-0.33-3.3-0.66-5-1-0.33-0.99-0.66-1.98-1-3l1-1z" fill="#69696B"/>
<path transform="translate(813,1262)" d="m0 0h18v1h-18v-1z" fill="#000002"/>
<path transform="translate(496,1211)" d="m0 0c3.38 1.19 5.65 2.28 8 5-0.99 0.33-1.98 0.66-3 1-0.66-0.66-1.32-1.32-2-2h-2v-2c-0.66-0.33-1.32-0.66-2-1 0.33-0.33 0.66-0.66 1-1z" fill="#454547"/>
<path transform="translate(438,1170)" d="m0 0h5c0.33 0.99 0.66 1.98 1 3 0.99 0.33 1.98 0.66 3 1-0.33 0.66-0.66 1.32-1 2-3.37-1.44-5.51-3.33-8-6z" fill="#6F6F71"/>
<path transform="translate(400,1132)" d="m0 0c1.65 1.65 3.3 3.3 5 5h-4c-1.75-2-1.75-2-3-4 0.66-0.33 1.32-0.66 2-1z" fill="#454547"/>
<path transform="translate(802,624)" d="m0 0h8c0.33 1.32 0.66 2.64 1 4-2.97-0.495-2.97-0.495-6-1v-2c-0.99-0.33-1.98-0.66-3-1z" fill="#D0D1D2"/>
<path transform="translate(803,608)" d="m0 0h7c0.33 1.65 0.66 3.3 1 5-2.64-1.32-5.28-2.64-8-4v-1z" fill="#6F6F71"/>
<path transform="translate(772 591)" d="m0 0c0.715 0.287 1.43 0.575 2.17 0.871 0.543 0.228 1.09 0.456 1.64 0.691-3.34 1.11-4.67 0.917-8 0-0.99-0.66-1.98-1.32-3-2 3.41-1.14 4-0.867 7.19 0.438z" fill="#7D7D7F"/>
<path transform="translate(533,1234)" d="m0 0c4.75 1.88 4.75 1.88 7 3v2c-5.75-1.75-5.75-1.75-8-4 0.33-0.33 0.66-0.66 1-1z" fill="#0E0E10"/>
<path transform="translate(553,1223)" d="m0 0c3.47 1.48 3.47 1.48 7 3v2c-3.36-0.599-5.38-1.85-8-4 0.33-0.33 0.66-0.66 1-1z" fill="#0E0E10"/>
<path transform="translate(467,1190)" d="m0 0c2.62 1.44 2.62 1.44 5 3-0.99 1.48-0.99 1.48-2 3-1.65-1.65-3.3-3.3-5-5 0.66-0.33 1.32-0.66 2-1z" fill="#58585A"/>
<path transform="translate(716,890)" d="m0 0h2v16h-1c-0.33-5.28-0.66-10.6-1-16z" fill="#000002"/>
<path transform="translate(694,574)" d="m0 0c2.31 0.66 4.62 1.32 7 2-0.66 1.32-1.32 2.64-2 4-1.94-0.75-1.94-0.75-4-2-0.75-2.12-0.75-2.12-1-4z" fill="#1D1D1F"/>
<path transform="translate(921,459)" d="m0 0h1v17h-1v-17z" fill="#FAFBFC"/>
<path transform="translate(598,1245)" d="m0 0c2.31 0.66 4.62 1.32 7 2-0.33 0.66-0.66 1.32-1 2-2.31-0.66-4.62-1.32-7-2 0.33-0.66 0.66-1.32 1-2z" fill="#0F0F11"/>
<path transform="translate(603,900)" d="m0 0h8v2h-8v-2z" fill="#000002"/>
<path transform="translate(766,621)" d="m0 0c2.94 0.812 2.94 0.812 6 2 0.33 0.99 0.66 1.98 1 3-2.97-0.495-2.97-0.495-6-1-0.33-1.32-0.66-2.64-1-4z" fill="#3E3E40"/>
<path transform="translate(783,615)" d="m0 0c1.48 0.114 2.96 0.241 4.44 0.375 0.824 0.0696 1.65 0.139 2.5 0.211 1.02 0.205 1.02 0.205 2.07 0.414 0.33 0.66 0.66 1.32 1 2-6.57 0.372-6.57 0.372-8.73-1.51-0.628-0.737-0.628-0.737-1.27-1.49z" fill="#8C8D8E"/>
<path transform="translate(740,611)" d="m0 0c3.35 0.949 6.69 1.9 10 3-0.33 0.66-0.66 1.32-1 2-6.75-1.62-6.75-1.62-9-5z" fill="#ABACAD"/>
<path transform="translate(682,552)" d="m0 0c3.19 1.94 3.19 1.94 6 4-3 1-3 1-6 0v-2c-0.99-0.33-1.98-0.66-3-1 0.99-0.33 1.98-0.66 3-1z" fill="#DADBDC"/>
<path transform="translate(541,1238)" d="m0 0c3.47 1.48 3.47 1.48 7 3l-1 2c-2.92-1.07-4.78-1.78-7-4 0.33-0.33 0.66-0.66 1-1z" fill="#101012"/>
<path transform="translate(525,1206)" d="m0 0 6 3c-0.99 0.66-1.98 1.32-3 2-1.32-0.66-2.64-1.32-4-2 0.33-0.99 0.66-1.98 1-3z" fill="#424244"/>
<path transform="translate(481,1177)" d="m0 0c3.38 1.19 5.65 2.28 8 5-0.99 0.495-0.99 0.495-2 1-2.02-1.64-4.02-3.31-6-5v-1z" fill="#000002"/>
<path transform="translate(677,582)" d="m0 0c1.65 0.33 3.3 0.66 5 1-0.66 1.32-1.32 2.64-2 4v-2c-1.32-0.33-2.64-0.66-4-1 0.33-0.66 0.66-1.32 1-2z" fill="#323234"/>
<path transform="translate(715,567)" d="m0 0c3.05 1.02 3.9 1.72 6 4l2 2c-2.78-0.376-4.59-0.673-6.81-2.44-1.19-1.56-1.19-1.56-1.19-3.56z" fill="#C8C8CA"/>
<path transform="translate(668,1269)" d="m0 0c2.31 0.33 4.62 0.66 7 1v2c-2.31-0.33-4.62-0.66-7-1v-2z" fill="#000002"/>
<path transform="translate(574,1255)" d="m0 0c1.98 0.66 3.96 1.32 6 2-0.33 0.66-0.66 1.32-1 2-1.98-0.66-3.96-1.32-6-2 0.33-0.66 0.66-1.32 1-2z" fill="#111113"/>
<path transform="translate(510,1220)" d="m0 0c2.62 0.938 2.62 0.938 5 2-0.99 1.48-0.99 1.48-2 3-1.65-1.32-3.3-2.64-5-4 0.66-0.33 1.32-0.66 2-1z" fill="#474749"/>
<path transform="translate(726,588)" d="m0 0c2.12 0.938 2.12 0.938 4 2v2c-2.44-0.375-2.44-0.375-5-1-0.33-0.66-0.66-1.32-1-2 0.66-0.33 1.32-0.66 2-1z" fill="#8E8F90"/>
<path transform="translate(704,562)" d="m0 0 6 3v2c-2.17-0.506-4-1-6-2v-3z" fill="#7D7D7F"/>
<path transform="translate(610,1271)" d="m0 0c1.65 0.33 3.3 0.66 5 1v2c-2.97-0.495-2.97-0.495-6-1 0.33-0.66 0.66-1.32 1-2z" fill="#131315"/>
<path transform="translate(541,1186)" d="m0 0c3.49 0.645 6.03 2.1 9 4-0.99 0.495-0.99 0.495-2 1-2.48-1.11-4.68-2.58-7-4v-1z" fill="#000002"/>
<path transform="translate(1399,813)" d="m0 0c0.66 0.33 1.32 0.66 2 1-0.33 2.31-0.66 4.62-1 7h-2c0.33-2.64 0.66-5.28 1-8z" fill="#606062"/>
<path transform="translate(748,598)" d="m0 0c1.32 0.66 2.64 1.32 4 2-0.33 0.99-0.66 1.98-1 3v-2c-1.65-0.33-3.3-0.66-5-1l2-2z" fill="#39393B"/>
<path transform="translate(648,1285)" d="m0 0c2.97 0.495 2.97 0.495 6 1v2c-2.97-0.495-2.97-0.495-6-1v-2z" fill="#000002"/>
<path transform="translate(592,1263)" d="m0 0h2v2c1.32 0.33 2.64 0.66 4 1-0.99 0.33-1.98 0.66-3 1-2.19-1.44-2.19-1.44-4-3 0.33-0.33 0.66-0.66 1-1z" fill="#535355"/>
<path transform="translate(522,1227)" d="m0 0c1.32 0.66 2.64 1.32 4 2-0.33 0.66-0.66 1.32-1 2-2.48-0.99-2.48-0.99-5-2 0.66-0.66 1.32-1.32 2-2z" fill="#535355"/>
<path transform="translate(1174,1123)" d="m0 0c0.66 0.99 1.32 1.98 2 3-0.99 0.66-1.98 1.32-3 2-0.66-0.66-1.32-1.32-2-2l3-3z" fill="#000002"/>
<path transform="translate(619,901)" d="m0 0h6v2h-6v-2z" fill="#000002"/>
<path transform="translate(710,565)" d="m0 0c2.48 0.495 2.48 0.495 5 1v3c-1.65-0.33-3.3-0.66-5-1v-3z" fill="#535355"/>
<path transform="translate(1055,1237)" d="m0 0c0.66 0.33 1.32 0.66 2 1v2c-1.32 0.33-2.64 0.66-4 1v-3c0.66-0.33 1.32-0.66 2-1z" fill="#2D2D2F"/>
<path transform="translate(566,1230)" d="m0 0c1.98 0.66 3.96 1.32 6 2-0.66 0.66-1.32 1.32-2 2-1.32-0.66-2.64-1.32-4-2v-2z" fill="#000002"/>
<path transform="translate(516,1224)" d="m0 0c1.32 0.66 2.64 1.32 4 2v2c-2.48-0.99-2.48-0.99-5-2 0.33-0.66 0.66-1.32 1-2z" fill="#2D2D2F"/>
<path transform="translate(480,1200)" d="m0 0c0.99 0.66 1.98 1.32 3 2-0.33 0.99-0.66 1.98-1 3-1.32-1.32-2.64-2.64-4-4 0.66-0.33 1.32-0.66 2-1z" fill="#717273"/>
<path transform="translate(489,1182)" d="m0 0c1.32 0.66 2.64 1.32 4 2-0.66 0.66-1.32 1.32-2 2-0.99-0.99-1.98-1.98-3-3 0.33-0.33 0.66-0.66 1-1z" fill="#2D2D2F"/>
<path transform="translate(452,1179)" d="m0 0c1.32 0.66 2.64 1.32 4 2-0.99 0.66-1.98 1.32-3 2-0.66-0.99-1.32-1.98-2-3 0.33-0.33 0.66-0.66 1-1z" fill="#2D2D2F"/>
<path transform="translate(1396,828)" d="m0 0h2c-0.256 2.34-0.593 4.68-1 7-0.99 0.495-0.99 0.495-2 1 0.33-2.64 0.66-5.28 1-8z" fill="#717273"/>
<path transform="translate(742,595)" d="m0 0 4 2c-0.33 0.99-0.66 1.98-1 3-1.5-1.38-1.5-1.38-3-3v-2z" fill="#717273"/>
<path transform="translate(755,585)" d="m0 0h3c0.66 1.32 1.32 2.64 2 4-1.98-0.66-3.96-1.32-6-2 0.33-0.66 0.66-1.32 1-2z" fill="#E3E4E5"/>
<path transform="translate(905,446)" d="m0 0h1v11h-1v-11z" fill="#000002"/>
<path transform="translate(925,1296)" d="m0 0c-2.96 1.48-5.74 1.06-9 1v-1c5.62-1.12 5.62-1.12 9 0z" fill="#000002"/>
<path transform="translate(622,1276)" d="m0 0c1.65 0.33 3.3 0.66 5 1-0.33 0.66-0.66 1.32-1 2-1.65-0.33-3.3-0.66-5-1 0.33-0.66 0.66-1.32 1-2z" fill="#19191B"/>
<path transform="translate(598,1266)" d="m0 0c1.65 0.33 3.3 0.66 5 1-0.33 0.66-0.66 1.32-1 2-1.65-0.33-3.3-0.66-5-1 0.33-0.66 0.66-1.32 1-2z" fill="#19191B"/>
<path transform="translate(548,1220)" d="m0 0c2.48 0.99 2.48 0.99 5 2-0.33 0.66-0.66 1.32-1 2-1.32-0.66-2.64-1.32-4-2v-2z" fill="#000002"/>
<path transform="translate(533,1211)" d="m0 0c2.12 0.938 2.12 0.938 4 2-0.66 0.66-1.32 1.32-2 2-1.32-0.99-2.64-1.98-4-3 0.66-0.33 1.32-0.66 2-1z" fill="#323234"/>
<path transform="translate(497,1187)" d="m0 0c1.32 0.99 2.64 1.98 4 3-0.99 0.33-1.98 0.66-3 1-0.99-0.99-1.98-1.98-3-3 0.66-0.33 1.32-0.66 2-1z" fill="#4B4B4D"/>
<path transform="translate(717,920)" d="m0 0h1v10h-1v-10z" fill="#000002"/>
<path transform="translate(248,726)" d="m0 0h2v5h-2v-5z" fill="#000002"/>
<path transform="translate(764,620)" d="m0 0c0.99 1.32 1.98 2.64 3 4-1.94-0.375-1.94-0.375-4-1-0.33-0.66-0.66-1.32-1-2 0.66-0.33 1.32-0.66 2-1z" fill="#E1E1E3"/>
<path transform="translate(681,568)" d="m0 0c2 1 2 1 4 4-1.98-0.66-3.96-1.32-6-2l2-2z" fill="#E1E1E3"/>
<path transform="translate(537,1214)" d="m0 0c1.32 0.66 2.64 1.32 4 2-0.99 0.33-1.98 0.66-3 1-0.66-0.66-1.32-1.32-2-2 0.33-0.33 0.66-0.66 1-1z" fill="#1B1B1D"/>
<path transform="translate(1169,1128)" d="m0 0c0.33 0.99 0.66 1.98 1 3-0.99 0.495-0.99 0.495-2 1-0.66-0.66-1.32-1.32-2-2 0.99-0.66 1.98-1.32 3-2z" fill="#000002"/>
<path transform="translate(811,641)" d="m0 0c0.99 0.33 1.98 0.66 3 1v4h-2c-0.33-1.65-0.66-3.3-1-5z" fill="#1B1B1D"/>
<path transform="translate(762,588)" d="m0 0c2.48 0.495 2.48 0.495 5 1-0.66 0.66-1.32 1.32-2 2-0.99-0.33-1.98-0.66-3-1v-2z" fill="#535355"/>
<path transform="translate(690,572)" d="m0 0h2c0.66 1.65 1.32 3.3 2 5-2-1.38-2-1.38-4-3v-2z" fill="#C2C3C4"/>
<path transform="translate(729,573)" d="m0 0c1.32 0.66 2.64 1.32 4 2-1.65 0.33-3.3 0.66-5 1 0.33-0.99 0.66-1.98 1-3z" fill="#6F6F71"/>
<path transform="translate(719,569)" d="m0 0c4.75 0.75 4.75 0.75 7 3-4.75-0.75-4.75-0.75-7-3z" fill="#000002"/>
<path transform="translate(817,1315)" d="m0 0c0.99 0.33 1.98 0.66 3 1-1 1-1 1-3.56 1.06-1.21-0.0309-1.21-0.0309-2.44-0.0625 0.99-0.66 1.98-1.32 3-2z" fill="#000002"/>
<path transform="translate(911,1297)" d="m0 0h5c-0.66 0.66-1.32 1.32-2 2h-3v-2z" fill="#000002"/>
<path transform="translate(618,1274)" d="m0 0c1.32 0.66 2.64 1.32 4 2-0.99 0.33-1.98 0.66-3 1-0.66-0.66-1.32-1.32-2-2 0.33-0.33 0.66-0.66 1-1z" fill="#3E3E40"/>
<path transform="translate(682,1272)" d="m0 0c2.62 0.375 2.62 0.375 5 1v1h-7c0.66-0.66 1.32-1.32 2-2z" fill="#3E3E40"/>
<path transform="translate(587,1261)" d="m0 0 4 2h-4v-2z" fill="#000002"/>
<path transform="translate(623,1255)" d="m0 0c2.48 0.495 2.48 0.495 5 1-0.33 0.66-0.66 1.32-1 2h-2v-2c-0.66-0.33-1.32-0.66-2-1z" fill="#000002"/>
<path transform="translate(594,1243)" d="m0 0c2.12 0.938 2.12 0.938 4 2-1.88 0.625-1.88 0.625-4 1-0.66-0.66-1.32-1.32-2-2 0.66-0.33 1.32-0.66 2-1z" fill="#3E3E40"/>
<path transform="translate(548,1243)" d="m0 0c1.32 0.33 2.64 0.66 4 1v2c-1.32-0.33-2.64-0.66-4-1v-2z" fill="#BBBCBD"/>
<path transform="translate(544,1218)" d="m0 0c1.32 0.66 2.64 1.32 4 2-0.99 0.33-1.98 0.66-3 1-0.66-0.66-1.32-1.32-2-2 0.33-0.33 0.66-0.66 1-1z" fill="#1F1F21"/>
<path transform="translate(505,1217)" d="m0 0c0.99 0.33 1.98 0.66 3 1-0.33 0.66-0.66 1.32-1 2-0.99-0.33-1.98-0.66-3-1 0.33-0.66 0.66-1.32 1-2z" fill="#5D5E5F"/>
<path transform="translate(1084,1215)" d="m0 0c0.66 0.33 1.32 0.66 2 1l-2 2c-0.99-0.33-1.98-0.66-3-1 0.99-0.66 1.98-1.32 3-2z" fill="#000002"/>
<path transform="translate(506,1194)" d="m0 0c0.99 0.33 1.98 0.66 3 1-0.33 0.66-0.66 1.32-1 2-0.99-0.33-1.98-0.66-3-1 0.33-0.66 0.66-1.32 1-2z" fill="#3E3E40"/>
<path transform="translate(456,1182)" d="m0 0c1.49 0.99 1.49 0.99 3 2-0.66 0.66-1.32 1.32-2 2-0.66-0.99-1.32-1.98-2-3 0.33-0.33 0.66-0.66 1-1z" fill="#5D5E5F"/>
<path transform="translate(320,1034)" d="m0 0c1.32 0.33 2.64 0.66 4 1-0.33 0.99-0.66 1.98-1 3-0.99-0.66-1.98-1.32-3-2v-2z" fill="#BBBCBD"/>
<path transform="translate(1385,869)" d="m0 0h2c0.33 1.65 0.66 3.3 1 5-0.66-0.33-1.32-0.66-2-1-0.625-2.06-0.625-2.06-1-4z" fill="#7D7D7F"/>
<path transform="translate(1390,855)" d="m0 0c0.99 0.33 1.98 0.66 3 1-0.99 1.49-0.99 1.49-2 3-0.33-1.32-0.66-2.64-1-4z" fill="#5D5E5F"/>
<path transform="translate(759,618)" d="m0 0c2 1 2 1 3 3-0.99 0.33-1.98 0.66-3 1-0.33-0.66-0.66-1.32-1-2 0.33-0.66 0.66-1.32 1-2z" fill="#3E3E40"/>
<path transform="translate(718,599)" d="m0 0c-0.66 1.32-1.32 2.64-2 4v-2c-0.66-0.33-1.32-0.66-2-1 2-1 2-1 4-1z" fill="#3E3E40"/>
<path transform="translate(667,577)" d="m0 0 4 2c-1.32 0.33-2.64 0.66-4 1v-3z" fill="#9C9C9E"/>
<path transform="translate(631,1279)" d="m0 0c2.48 0.495 2.48 0.495 5 1l-4 2c-0.33-0.99-0.66-1.98-1-3z" fill="#000002"/>
<path transform="translate(657,1266)" d="m0 0c1.32 0.33 2.64 0.66 4 1-1.32 0.33-2.64 0.66-4 1v-2z" fill="#000002"/>
<path transform="translate(643,1262)" d="m0 0c1.98 0.495 1.98 0.495 4 1-1.65 0.33-3.3 0.66-5 1 0.33-0.66 0.66-1.32 1-2z" fill="#232325"/>
<path transform="translate(583,1259)" d="m0 0c0.99 0.66 1.98 1.32 3 2-0.99 0.495-0.99 0.495-2 1-0.99-0.66-1.98-1.32-3-2 0.66-0.33 1.32-0.66 2-1z" fill="#474749"/>
<path transform="translate(635,1259)" d="m0 0c2.48 0.495 2.48 0.495 5 1l-4 2c-0.33-0.99-0.66-1.98-1-3z" fill="#000002"/>
<path transform="translate(584,1238)" d="m0 0c0.99 0.66 1.98 1.32 3 2-0.99 0.33-1.98 0.66-3 1-0.66-0.66-1.32-1.32-2-2 0.66-0.33 1.32-0.66 2-1z" fill="#474749"/>
<path transform="translate(529,1231)" d="m0 0c0.99 0.66 1.98 1.32 3 2-0.99 0.33-1.98 0.66-3 1-0.66-0.66-1.32-1.32-2-2 0.66-0.33 1.32-0.66 2-1z" fill="#6B6B6D"/>
<path transform="translate(575,1204)" d="m0 0c2.48 0.99 2.48 0.99 5 2-0.99 0.495-0.99 0.495-2 1l-3-3z" fill="#000002"/>
<path transform="translate(461,1186)" d="m0 0c0.66 0.33 1.32 0.66 2 1-0.33 0.99-0.66 1.98-1 3-0.66-0.99-1.32-1.98-2-3 0.33-0.33 0.66-0.66 1-1z" fill="#6B6B6D"/>
<path transform="translate(470,900)" d="m0 0h2c0.33 0.99 0.66 1.98 1 3h-3v-3z" fill="#232325"/>
<path transform="translate(248,719)" d="m0 0h2v6h-1c-0.33-1.98-0.66-3.96-1-6z" fill="#B2B3B4"/>
<path transform="translate(1384,617)" d="m0 0h1v7h-1v-7z" fill="#000002"/>
<path transform="translate(754,600)" d="m0 0c1.49 0.99 1.49 0.99 3 2-1.32 0.33-2.64 0.66-4 1 0.33-0.99 0.66-1.98 1-3z" fill="#8E8F90"/>
<path transform="translate(827,147)" d="m0 0h7v1h-7v-1z" fill="#000002"/>
<path transform="translate(898,1291)" d="m0 0h6v1h-6v-1z" fill="#000002"/>
<path transform="translate(630,1278)" d="m0 0v2c-1.32-0.33-2.64-0.66-4-1 2-1 2-1 4-1z" fill="#535355"/>
<path transform="translate(579,1236)" d="m0 0c0.99 0.33 1.98 0.66 3 1v2c-0.99-0.33-1.98-0.66-3-1v-2z" fill="#000002"/>
<path transform="translate(521,1204)" d="m0 0c0.99 0.33 1.98 0.66 3 1-0.33 0.66-0.66 1.32-1 2-0.66-0.33-1.32-0.66-2-1v-2z" fill="#29292B"/>
<path transform="translate(447,1177)" d="m0 0 4 2h-3c-0.33-0.66-0.66-1.32-1-2z" fill="#FAFBFC"/>
<path transform="translate(477,1174)" d="m0 0 4 2h-3c-0.33-0.66-0.66-1.32-1-2z" fill="#000002"/>
<path transform="translate(1177,1120)" d="m0 0c0.66 0.33 1.32 0.66 2 1v2c-0.99-0.33-1.98-0.66-3-1 0.33-0.66 0.66-1.32 1-2z" fill="#000002"/>
<path transform="translate(1230,1063)" d="m0 0v3c-0.99 0.495-0.99 0.495-2 1 0.66-1.32 1.32-2.64 2-4z" fill="#000002"/>
<path transform="translate(569,915)" d="m0 0h1v6h-1v-6z" fill="#000002"/>
<path transform="translate(598,899)" d="m0 0h3v2h-3v-2z" fill="#000002"/>
<path transform="translate(594,899)" d="m0 0h3v2h-3v-2z" fill="#000002"/>
<path transform="translate(1397,821)" d="m0 0h1v6h-1v-6z" fill="#FAFBFC"/>
<path transform="translate(241,705)" d="m0 0h1v6h-1v-6z" fill="#000002"/>
<path transform="translate(1354,661)" d="m0 0h1v6h-1v-6z" fill="#000002"/>
<path transform="translate(711,597)" d="m0 0c2 1 2 1 3 3h-3v-3z" fill="#535355"/>
<path transform="translate(678,567)" d="m0 0c0.99 0.33 1.98 0.66 3 1-1.65 0.33-3.3 0.66-5 1l2-2z" fill="#7D7D7F"/>
<path transform="translate(699,560)" d="m0 0c2.48 0.495 2.48 0.495 5 1-0.99 0.33-1.98 0.66-3 1l-2-2z" fill="#000002"/>
<path transform="translate(1022,488)" d="m0 0h2v3h-2v-3z" fill="#000002"/>
<path transform="translate(916,1298)" d="m0 0h5v1h-5v-1z" fill="#FAFBFC"/>
<path transform="translate(893,1292)" d="m0 0h5v1h-5v-1z" fill="#000002"/>
<path transform="translate(657,1287)" d="m0 0 4 2h-4v-2z" fill="#000002"/>
<path transform="translate(644,1283)" d="m0 0 4 2h-4v-2z" fill="#000002"/>
<path transform="translate(640,1282)" d="m0 0c0.66 0.33 1.32 0.66 2 1-1.32 0.33-2.64 0.66-4 1 0.66-0.66 1.32-1.32 2-2z" fill="#646466"/>
<path transform="translate(636,1281)" d="m0 0c0.99 0.33 1.98 0.66 3 1-0.99 0.33-1.98 0.66-3 1v-2z" fill="#000002"/>
<path transform="translate(606,1269)" d="m0 0c0.66 0.33 1.32 0.66 2 1-1.32 0.33-2.64 0.66-4 1 0.66-0.66 1.32-1.32 2-2z" fill="#969698"/>
<path transform="translate(650,1263)" d="m0 0 4 2h-4v-2z" fill="#000002"/>
<path transform="translate(618,1258)" d="m0 0 4 2c-1.32-0.33-2.64-0.66-4-1v-1z" fill="#000002"/>
<path transform="translate(615,1252)" d="m0 0h2v2c-0.99-0.33-1.98-0.66-3-1 0.33-0.33 0.66-0.66 1-1z" fill="#323234"/>
<path transform="translate(563,1228)" d="m0 0c1.49 0.99 1.49 0.99 3 2-1.32-0.33-2.64-0.66-4-1 0.33-0.33 0.66-0.66 1-1z" fill="#323234"/>
<path transform="translate(464,1188)" d="m0 0c1.49 0.99 1.49 0.99 3 2-0.99 0.33-1.98 0.66-3 1v-3z" fill="#000002"/>
<path transform="translate(493,1185)" d="m0 0c0.99 0.33 1.98 0.66 3 1-0.66 0.66-1.32 1.32-2 2-0.33-0.99-0.66-1.98-1-3z" fill="#323234"/>
<path transform="translate(1196,1164)" d="m0 0c0.66 0.33 1.32 0.66 2 1-0.99 0.66-1.98 1.32-3 2 0.33-0.99 0.66-1.98 1-3z" fill="#000002"/>
<path transform="translate(1392,848)" d="m0 0h2c-0.33 0.99-0.66 1.98-1 3-0.33-0.99-0.66-1.98-1-3z" fill="#000002"/>
<path transform="translate(1393,842)" d="m0 0h1v5h-1v-5z" fill="#FAFBFC"/>
<path transform="translate(1384,663)" d="m0 0h1v5h-1v-5z" fill="#000002"/>
<path transform="translate(1387,653)" d="m0 0h1v5h-1v-5z" fill="#FAFBFC"/>
<path transform="translate(778,611)" d="m0 0 4 2c-1.32-0.33-2.64-0.66-4-1v-1z" fill="#000002"/>
<path transform="translate(905,1298)" d="m0 0 4 1z" fill="#000002"/>
<path transform="translate(640,1261)" d="m0 0c0.99 0.33 1.98 0.66 3 1-0.99 0.33-1.98 0.66-3 1v-2z" fill="#000002"/>
<path transform="translate(614,1257)" d="m0 0 4 1z" fill="#000002"/>
<path transform="translate(570,1253)" d="m0 0c0.66 0.33 1.32 0.66 2 1h-3c0.33-0.33 0.66-0.66 1-1z" fill="#3E3E40"/>
<path transform="translate(1046,1242)" d="m0 0 4 1z" fill="#3E3E40"/>
<path transform="translate(1058,1237)" d="m0 0c0.66 0.33 1.32 0.66 2 1h-3l1-1z" fill="#FAFBFC"/>
<path transform="translate(976,1237)" d="m0 0 4 1z" fill="#000002"/>
<path transform="translate(477,1198)" d="m0 0v3z" fill="#7D7D7F"/>
<path transform="translate(473,1197)" d="m0 0c0.99 0.33 1.98 0.66 3 1h-3v-1z" fill="#FAFBFC"/>
<path transform="translate(502,1193)" d="m0 0c0.99 0.33 1.98 0.66 3 1h-3v-1z" fill="#FAFBFC"/>
<path transform="translate(1164,1132)" d="m0 0v3z" fill="#000002"/>
<path transform="translate(1394,837)" d="m0 0 1 4z" fill="#FAFBFC"/>
<path transform="translate(1405,767)" d="m0 0 1 4z" fill="#000002"/>
<path transform="translate(812,627)" d="m0 0v3z" fill="#3E3E40"/>
<path transform="translate(779,614)" d="m0 0 4 1z" fill="#FAFBFC"/>
<path transform="translate(773,595)" d="m0 0 4 1z" fill="#FAFBFC"/>
<path transform="translate(726,572)" d="m0 0 2 1-2 2v-3z" fill="#000002"/>
<path transform="translate(904,413)" d="m0 0 2 1c-0.33 0.66-0.66 1.32-1 2-0.33-0.99-0.66-1.98-1-3z" fill="#000002"/>
<path transform="translate(898,1299)" d="m0 0c3 1 3 1 3 1z" fill="#000002"/>
<path transform="translate(688,1296)" d="m0 0c3 1 3 1 3 1z" fill="#000002"/>
<path transform="translate(684,1295)" d="m0 0c3 1 3 1 3 1z" fill="#000002"/>
<path transform="translate(951,1293)" d="m0 0c3 1 3 1 3 1z" fill="#FAFBFC"/>
<path transform="translate(906,1290)" d="m0 0c3 1 3 1 3 1z" fill="#000002"/>
<path transform="translate(914,1289)" d="m0 0c3 1 3 1 3 1z" fill="#000002"/>
<path transform="translate(925,1287)" d="m0 0c3 1 3 1 3 1z" fill="#000002"/>
<path transform="translate(703,1278)" d="m0 0c3 1 3 1 3 1z" fill="#000002"/>
<path transform="translate(678,1271)" d="m0 0c0.66 0.66 1.32 1.32 2 2h-2v-2z" fill="#000002"/>
<path transform="translate(664,1268)" d="m0 0c3 1 3 1 3 1z" fill="#000002"/>
<path transform="translate(660,1268)" d="m0 0c3 1 3 1 3 1z" fill="#FAFBFC"/>
<path transform="translate(654,1265)" d="m0 0c3 1 3 1 3 1z" fill="#000002"/>
<path transform="translate(646,1264)" d="m0 0c3 1 3 1 3 1z" fill="#FAFBFC"/>
<path transform="translate(630,1259)" d="m0 0c3 1 3 1 3 1z" fill="#FAFBFC"/>
<path transform="translate(1050,1240)" d="m0 0 2 2h-2v-2z" fill="#000002"/>
<path transform="translate(589,1241)" d="m0 0c0.99 0.495 0.99 0.495 2 1-0.99 0.495-0.99 0.495-2 1v-2z" fill="#000002"/>
<path transform="translate(1060,1236)" d="m0 0c3 1 3 1 3 1z" fill="#FAFBFC"/>
<path transform="translate(576,1235)" d="m0 0c0.99 0.495 0.99 0.495 2 1-0.99 0.495-0.99 0.495-2 1v-2z" fill="#000002"/>
<path transform="translate(1147,1146)" d="m0 0c0.33 0.66 0.66 1.32 1 2-0.66-0.33-1.32-0.66-2-1l1-1z" fill="#000002"/>
<path transform="translate(628,900)" d="m0 0c3 1 3 1 3 1z" fill="#000002"/>
<path transform="translate(239,724)" d="m0 0c0.33 0.66 0.66 1.32 1 2-0.66-0.33-1.32-0.66-2-1 0.33-0.33 0.66-0.66 1-1z" fill="#000002"/>
<path transform="translate(810,625)" d="m0 0h2c-0.33 0.66-0.66 1.32-1 2-0.33-0.66-0.66-1.32-1-2z" fill="#000002"/>
<path transform="translate(802,622)" d="m0 0c3 1 3 1 3 1z" fill="#000002"/>
<path transform="translate(682,585)" d="m0 0 2 2h-2v-2z" fill="#FAFBFC"/>
<path transform="translate(730,576)" d="m0 0c3 1 3 1 3 1z" fill="#FAFBFC"/>
<path transform="translate(687,573)" d="m0 0c3 1 3 1 3 1z" fill="#FAFBFC"/>
<path transform="translate(913,129)" d="m0 0c3 1 3 1 3 1z" fill="#000002"/>
<path transform="translate(906,128)" d="m0 0c3 1 3 1 3 1z" fill="#000002"/>
<path transform="translate(914,1299)" d="m0 0 2 1z" fill="#FAFBFC"/>
<path transform="translate(944,1295)" d="m0 0 2 1z" fill="#FAFBFC"/>
<path transform="translate(654,1288)" d="m0 0 2 1z" fill="#FAFBFC"/>
<path transform="translate(641,1284)" d="m0 0 2 1z" fill="#FAFBFC"/>
<path transform="translate(608,1270)" d="m0 0 2 1z" fill="#000002"/>
<path transform="translate(602,1269)" d="m0 0 2 1z" fill="#FAFBFC"/>
<path transform="translate(604,1268)" d="m0 0 2 1z" fill="#000002"/>
<path transform="translate(633,1260)" d="m0 0 2 1z" fill="#FAFBFC"/>
<path transform="translate(579,1259)" d="m0 0 2 1z" fill="#FAFBFC"/>
<path transform="translate(628,1258)" d="m0 0 2 1z" fill="#7D7D7F"/>
<path transform="translate(630,1257)" d="m0 0 2 1z" fill="#000002"/>
<path transform="translate(566,1253)" d="m0 0 2 1z" fill="#7D7D7F"/>
<path transform="translate(568,1252)" d="m0 0 2 1z" fill="#000002"/>
<path transform="translate(1029,1250)" d="m0 0 2 1z" fill="#000002"/>
<path transform="translate(1031,1249)" d="m0 0 2 1z" fill="#000002"/>
<path transform="translate(552,1246)" d="m0 0 2 1z" fill="#FAFBFC"/>
<path transform="translate(554,1245)" d="m0 0 2 1z" fill="#000002"/>
<path transform="translate(552,1244)" d="m0 0 2 1z" fill="#000002"/>
<path transform="translate(590,1243)" d="m0 0 2 1z" fill="#FAFBFC"/>
<path transform="translate(587,1240)" d="m0 0 2 1z" fill="#000002"/>
<path transform="translate(980,1236)" d="m0 0 2 1z" fill="#000002"/>
<path transform="translate(1063,1235)" d="m0 0 2 1z" fill="#FAFBFC"/>
<path transform="translate(1061,1234)" d="m0 0 2 1z" fill="#000002"/>
<path transform="translate(574,1234)" d="m0 0 2 1z" fill="#000002"/>
<path transform="translate(530,1234)" d="m0 0 2 1z" fill="#FAFBFC"/>
<path transform="translate(525,1231)" d="m0 0 2 1z" fill="#7D7D7F"/>
<path transform="translate(1078,1224)" d="m0 0 2 1z" fill="#000002"/>
<path transform="translate(1075,1220)" d="m0 0 2 1z" fill="#000002"/>
<path transform="translate(1077,1219)" d="m0 0 2 1z" fill="#000002"/>
<path transform="translate(508,1219)" d="m0 0 2 1z" fill="#000002"/>
<path transform="translate(1129,1218)" d="m0 0 2 1z" fill="#FAFBFC"/>
<path transform="translate(1079,1218)" d="m0 0 2 1z" fill="#000002"/>
<path transform="translate(502,1217)" d="m0 0 2 1z" fill="#FAFBFC"/>
<path transform="translate(529,1211)" d="m0 0 2 1z" fill="#7D7D7F"/>
<path transform="translate(582,1208)" d="m0 0 2 1z" fill="#000002"/>
<path transform="translate(580,1207)" d="m0 0 2 1z" fill="#000002"/>
<path transform="translate(509,1198)" d="m0 0 2 1z" fill="#FAFBFC"/>
<path transform="translate(557,1195)" d="m0 0 2 1z" fill="#000002"/>
<path transform="translate(555,1194)" d="m0 0 2 1z" fill="#000002"/>
<path transform="translate(552,1192)" d="m0 0 2 1z" fill="#000002"/>
<path transform="translate(550,1191)" d="m0 0 2 1z" fill="#000002"/>
<path transform="translate(499,1191)" d="m0 0 2 1z" fill="#7D7D7F"/>
<path transform="translate(539,1185)" d="m0 0 2 1z" fill="#000002"/>
<path transform="translate(536,1183)" d="m0 0 2 1z" fill="#000002"/>
<path transform="translate(447,1175)" d="m0 0 2 1z" fill="#000002"/>
<path transform="translate(975,940)" d="m0 0 2 1z" fill="#000002"/>
<path transform="translate(883,923)" d="m0 0 2 1z" fill="#000002"/>
<path transform="translate(905,904)" d="m0 0 2 1z" fill="#000002"/>
<path transform="translate(800,636)" d="m0 0 2 1z" fill="#000002"/>
<path transform="translate(798,635)" d="m0 0 2 1z" fill="#000002"/>
<path transform="translate(779,627)" d="m0 0 2 1z" fill="#000002"/>
<path transform="translate(800,623)" d="m0 0 2 1z" fill="#FAFBFC"/>
<path transform="translate(800,621)" d="m0 0 2 1z" fill="#000002"/>
<path transform="translate(745,612)" d="m0 0 2 1z" fill="#000002"/>
<path transform="translate(743,611)" d="m0 0 2 1z" fill="#000002"/>
<path transform="translate(766,606)" d="m0 0 2 1z" fill="#000002"/>
<path transform="translate(755,603)" d="m0 0 2 1z" fill="#FAFBFC"/>
<path transform="translate(757,602)" d="m0 0 2 1z" fill="#000002"/>
<path transform="translate(792,601)" d="m0 0 2 1z" fill="#000002"/>
<path transform="translate(786,600)" d="m0 0 2 1z" fill="#FAFBFC"/>
<path transform="translate(788,599)" d="m0 0 2 1z" fill="#000002"/>
<path transform="translate(714,598)" d="m0 0 2 1z" fill="#000002"/>
<path transform="translate(708,598)" d="m0 0 2 1z" fill="#FAFBFC"/>
<path transform="translate(746,597)" d="m0 0 2 1z" fill="#000002"/>
<path transform="translate(771,594)" d="m0 0 2 1z" fill="#FAFBFC"/>
<path transform="translate(735,592)" d="m0 0 2 1z" fill="#000002"/>
<path transform="translate(730,590)" d="m0 0 2 1z" fill="#000002"/>
<path transform="translate(760,589)" d="m0 0 2 1z" fill="#FAFBFC"/>
<path transform="translate(760,587)" d="m0 0 2 1z" fill="#000002"/>
<path transform="translate(684,587)" d="m0 0 2 1z" fill="#FAFBFC"/>
<path transform="translate(719,585)" d="m0 0 2 1z" fill="#000002"/>
<path transform="translate(740,578)" d="m0 0 2 1z" fill="#000002"/>
<path transform="translate(733,575)" d="m0 0 2 1z" fill="#000002"/>
<path transform="translate(723,573)" d="m0 0 2 1z" fill="#FAFBFC"/>
<path transform="translate(685,572)" d="m0 0 2 1z" fill="#FAFBFC"/>
<path transform="translate(687,571)" d="m0 0 2 1z" fill="#000002"/>
<path transform="translate(685,570)" d="m0 0 2 1z" fill="#000002"/>
<path transform="translate(676,566)" d="m0 0 2 1z" fill="#000002"/>
<path transform="translate(674,565)" d="m0 0 2 1z" fill="#000002"/>
<path transform="translate(701,563)" d="m0 0 2 1z" fill="#FAFBFC"/>
<path transform="translate(699,562)" d="m0 0 2 1z" fill="#FAFBFC"/>
<path transform="translate(662,562)" d="m0 0 2 1z" fill="#FAFBFC"/>
<path transform="translate(688,557)" d="m0 0 2 1z" fill="#FAFBFC"/>
<path transform="translate(677,552)" d="m0 0 2 1z" fill="#FAFBFC"/>
<path transform="translate(679,551)" d="m0 0 2 1z" fill="#000002"/>
<path transform="translate(940,395)" d="m0 0 2 1z" fill="#000002"/>
<path transform="translate(882,370)" d="m0 0 2 1z" fill="#000002"/>
<path transform="translate(890,127)" d="m0 0 2 1z" fill="#FAFBFC"/>
</svg>
