<?xml version="1.0" standalone="no"?>
<!DOCTYPE svg PUBLIC "-//W3C//DTD SVG 20010904//EN"
 "http://www.w3.org/TR/2001/REC-SVG-20010904/DTD/svg10.dtd">
<svg version="1.0" xmlns="http://www.w3.org/2000/svg"
 width="142.000000pt" height="131.000000pt" viewBox="0 0 142.000000 131.000000"
 preserveAspectRatio="xMidYMid meet">

<g transform="translate(0.000000,131.000000) scale(0.100000,-0.100000)"
fill="#000000" stroke="none">
<path d="M500 1031 c-96 -27 -194 -54 -218 -60 -36 -10 -43 -16 -40 -33 3 -23
-9 -18 291 -114 l148 -47 167 48 c171 48 197 60 174 74 -21 12 -265 33 -314
26 -49 -6 -74 5 -64 30 5 15 14 16 54 11 26 -3 117 -14 202 -24 133 -15 155
-20 158 -35 3 -13 9 -16 25 -11 54 17 67 25 67 41 0 15 -38 28 -213 75 -116
32 -223 60 -237 62 -14 3 -104 -17 -200 -43z"/>
<path d="M1042 836 c-1 -22 -9 -47 -18 -57 -11 -12 -16 -39 -17 -86 l-2 -68
40 0 c39 0 40 1 43 39 2 21 -1 43 -7 49 -6 6 -11 23 -11 37 0 14 -4 30 -9 36
-5 5 -11 27 -14 49 l-4 40 -1 -39z"/>
<path d="M410 706 c0 -108 1 -115 23 -129 72 -47 232 -69 352 -48 67 12 143
43 157 65 4 6 8 58 8 115 0 120 19 113 -157 61 l-111 -34 -126 42 c-70 23
-131 42 -136 42 -6 0 -10 -45 -10 -114z"/>
<path d="M1130 642 c0 -46 -9 -52 -81 -52 -37 0 -55 -5 -72 -21 -12 -12 -51
-35 -87 -52 -57 -27 -77 -31 -175 -35 -125 -5 -204 10 -289 56 -46 24 -51 31
-54 65 -2 20 -7 37 -12 37 -19 0 -244 -110 -251 -122 -4 -8 -11 -36 -14 -64
-5 -37 -2 -57 12 -83 16 -32 42 -46 297 -163 153 -70 284 -128 289 -128 11 0
562 292 592 314 11 8 15 18 10 26 -4 6 -10 8 -14 3 -3 -5 -130 -73 -281 -152
-150 -79 -282 -148 -291 -154 -14 -9 -70 13 -289 113 -149 68 -276 130 -283
138 -15 19 -15 128 0 143 8 8 83 -20 272 -100 143 -61 263 -111 266 -111 12 0
605 294 605 299 0 5 -83 51 -142 79 -5 2 -8 -14 -8 -36z"/>
<path d="M167 469 c7 -7 15 -10 18 -7 3 3 -2 9 -12 12 -14 6 -15 5 -6 -5z"/>
<path d="M230 440 c8 -5 20 -10 25 -10 6 0 3 5 -5 10 -8 5 -19 10 -25 10 -5 0
-3 -5 5 -10z"/>
<path d="M180 415 c14 -8 30 -14 35 -14 6 0 -1 6 -15 14 -14 8 -29 14 -35 14
-5 0 1 -6 15 -14z"/>
<path d="M174 376 c11 -9 24 -16 30 -16 12 0 7 5 -24 19 -24 11 -24 11 -6 -3z"/>
<path d="M620 220 c8 -5 20 -10 25 -10 6 0 3 5 -5 10 -8 5 -19 10 -25 10 -5 0
-3 -5 5 -10z"/>
<path d="M610 180 c8 -5 20 -10 25 -10 6 0 3 5 -5 10 -8 5 -19 10 -25 10 -5 0
-3 -5 5 -10z"/>
</g>
</svg>
